<svg xmlns="http://www.w3.org/2000/svg" xmlns:xlink="http://www.w3.org/1999/xlink" width="512" zoomAndPan="magnify" viewBox="0 0 384 391.91998" height="512" preserveAspectRatio="xMidYMid meet" version="1.2"><defs><clipPath id="ab904e9df5"><path d="M 0.175781 0 L 383.960938 0 L 383.960938 383.921875 L 0.175781 383.921875 Z M 0.175781 0 "/></clipPath></defs><g id="420d487fdd"><g clip-rule="nonzero" clip-path="url(#ab904e9df5)"><path style=" stroke:none;fill-rule:nonzero;fill:#c1ff72;fill-opacity:1;" d="M 383.957031 191.890625 C 383.957031 195.03125 383.878906 198.167969 383.726562 201.304688 C 383.570312 204.441406 383.339844 207.574219 383.03125 210.699219 C 382.726562 213.824219 382.339844 216.941406 381.878906 220.046875 C 381.417969 223.152344 380.882812 226.246094 380.269531 229.328125 C 379.65625 232.40625 378.96875 235.46875 378.207031 238.515625 C 377.441406 241.5625 376.605469 244.589844 375.695312 247.59375 C 374.78125 250.597656 373.796875 253.578125 372.738281 256.535156 C 371.679688 259.492188 370.550781 262.421875 369.351562 265.324219 C 368.148438 268.226562 366.875 271.09375 365.53125 273.933594 C 364.191406 276.773438 362.777344 279.578125 361.296875 282.347656 C 359.816406 285.117188 358.269531 287.847656 356.65625 290.542969 C 355.042969 293.234375 353.363281 295.886719 351.617188 298.5 C 349.871094 301.109375 348.066406 303.675781 346.195312 306.199219 C 344.324219 308.722656 342.390625 311.195312 340.398438 313.625 C 338.40625 316.050781 336.355469 318.429688 334.246094 320.757812 C 332.140625 323.082031 329.972656 325.355469 327.753906 327.578125 C 325.53125 329.796875 323.257812 331.964844 320.933594 334.070312 C 318.605469 336.179688 316.226562 338.230469 313.800781 340.222656 C 311.371094 342.214844 308.898438 344.148438 306.375 346.019531 C 303.851562 347.890625 301.285156 349.695312 298.675781 351.441406 C 296.0625 353.1875 293.410156 354.867188 290.71875 356.480469 C 288.023438 358.09375 285.292969 359.640625 282.523438 361.121094 C 279.753906 362.601562 276.949219 364.015625 274.109375 365.355469 C 271.269531 366.699219 268.402344 367.972656 265.5 369.175781 C 262.597656 370.375 259.667969 371.503906 256.710938 372.5625 C 253.753906 373.621094 250.773438 374.605469 247.769531 375.519531 C 244.765625 376.429688 241.738281 377.265625 238.691406 378.03125 C 235.644531 378.792969 232.582031 379.480469 229.503906 380.09375 C 226.421875 380.707031 223.328125 381.242188 220.222656 381.703125 C 217.117188 382.164062 214 382.550781 210.875 382.855469 C 207.75 383.164062 204.617188 383.394531 201.480469 383.550781 C 198.34375 383.703125 195.207031 383.78125 192.066406 383.78125 C 188.925781 383.78125 185.789062 383.703125 182.652344 383.550781 C 179.515625 383.394531 176.382812 383.164062 173.257812 382.855469 C 170.132812 382.550781 167.015625 382.164062 163.910156 381.703125 C 160.804688 381.242188 157.710938 380.707031 154.628906 380.09375 C 151.550781 379.480469 148.488281 378.792969 145.441406 378.03125 C 142.394531 377.265625 139.367188 376.429688 136.363281 375.519531 C 133.359375 374.605469 130.378906 373.621094 127.421875 372.5625 C 124.464844 371.503906 121.535156 370.375 118.632812 369.175781 C 115.730469 367.972656 112.863281 366.699219 110.023438 365.355469 C 107.183594 364.015625 104.378906 362.601562 101.609375 361.121094 C 98.839844 359.640625 96.109375 358.09375 93.414062 356.480469 C 90.722656 354.867188 88.070312 353.1875 85.457031 351.441406 C 82.847656 349.695312 80.28125 347.890625 77.757812 346.019531 C 75.234375 344.148438 72.761719 342.214844 70.332031 340.222656 C 67.90625 338.230469 65.527344 336.179688 63.199219 334.070312 C 60.875 331.964844 58.601562 329.796875 56.378906 327.578125 C 54.160156 325.355469 51.992188 323.082031 49.886719 320.757812 C 47.777344 318.429688 45.726562 316.050781 43.734375 313.625 C 41.742188 311.195312 39.808594 308.722656 37.9375 306.199219 C 36.066406 303.675781 34.261719 301.109375 32.515625 298.5 C 30.769531 295.886719 29.089844 293.234375 27.476562 290.542969 C 25.863281 287.847656 24.3125 285.117188 22.832031 282.347656 C 21.355469 279.578125 19.941406 276.773438 18.597656 273.933594 C 17.257812 271.09375 15.984375 268.226562 14.78125 265.324219 C 13.582031 262.421875 12.449219 259.492188 11.394531 256.535156 C 10.335938 253.578125 9.351562 250.597656 8.4375 247.59375 C 7.527344 244.589844 6.691406 241.5625 5.925781 238.515625 C 5.164062 235.46875 4.476562 232.40625 3.863281 229.328125 C 3.25 226.246094 2.714844 223.152344 2.253906 220.046875 C 1.792969 216.941406 1.40625 213.824219 1.101562 210.699219 C 0.792969 207.574219 0.5625 204.441406 0.40625 201.304688 C 0.253906 198.167969 0.175781 195.03125 0.175781 191.890625 C 0.175781 188.75 0.253906 185.613281 0.40625 182.476562 C 0.5625 179.339844 0.792969 176.207031 1.101562 173.082031 C 1.40625 169.957031 1.792969 166.839844 2.253906 163.734375 C 2.714844 160.628906 3.25 157.535156 3.863281 154.453125 C 4.476562 151.375 5.164062 148.3125 5.925781 145.265625 C 6.691406 142.21875 7.527344 139.191406 8.4375 136.1875 C 9.351562 133.183594 10.335938 130.203125 11.394531 127.246094 C 12.449219 124.289062 13.582031 121.359375 14.78125 118.457031 C 15.984375 115.554688 17.257812 112.6875 18.597656 109.847656 C 19.941406 107.007812 21.355469 104.203125 22.832031 101.433594 C 24.3125 98.664062 25.863281 95.933594 27.476562 93.238281 C 29.089844 90.546875 30.769531 87.894531 32.515625 85.28125 C 34.261719 82.671875 36.066406 80.105469 37.9375 77.582031 C 39.808594 75.058594 41.742188 72.585938 43.734375 70.15625 C 45.726562 67.730469 47.777344 65.351562 49.886719 63.023438 C 51.992188 60.699219 54.160156 58.425781 56.378906 56.203125 C 58.601562 53.984375 60.875 51.816406 63.199219 49.710938 C 65.527344 47.601562 67.90625 45.550781 70.332031 43.558594 C 72.761719 41.566406 75.234375 39.632812 77.757812 37.761719 C 80.28125 35.890625 82.847656 34.085938 85.457031 32.339844 C 88.070312 30.59375 90.722656 28.914062 93.414062 27.300781 C 96.109375 25.6875 98.839844 24.136719 101.609375 22.65625 C 104.378906 21.179688 107.183594 19.765625 110.023438 18.421875 C 112.863281 17.082031 115.730469 15.808594 118.632812 14.605469 C 121.535156 13.40625 124.464844 12.273438 127.421875 11.21875 C 130.378906 10.160156 133.359375 9.175781 136.363281 8.261719 C 139.367188 7.351562 142.394531 6.515625 145.441406 5.75 C 148.488281 4.988281 151.550781 4.300781 154.628906 3.6875 C 157.710938 3.074219 160.804688 2.539062 163.910156 2.078125 C 167.015625 1.617188 170.132812 1.230469 173.257812 0.925781 C 176.382812 0.617188 179.515625 0.386719 182.652344 0.230469 C 185.789062 0.078125 188.925781 0 192.066406 0 C 195.207031 0 198.34375 0.078125 201.480469 0.230469 C 204.617188 0.386719 207.75 0.617188 210.875 0.925781 C 214 1.230469 217.117188 1.617188 220.222656 2.078125 C 223.328125 2.539062 226.421875 3.074219 229.503906 3.6875 C 232.582031 4.300781 235.644531 4.988281 238.691406 5.75 C 241.738281 6.515625 244.765625 7.351562 247.769531 8.261719 C 250.773438 9.175781 253.753906 10.160156 256.710938 11.21875 C 259.667969 12.273438 262.597656 13.40625 265.5 14.605469 C 268.402344 15.808594 271.269531 17.082031 274.109375 18.421875 C 276.949219 19.765625 279.753906 21.179688 282.523438 22.65625 C 285.292969 24.136719 288.023438 25.6875 290.71875 27.300781 C 293.410156 28.914062 296.0625 30.59375 298.675781 32.339844 C 301.285156 34.085938 303.851562 35.890625 306.375 37.761719 C 308.898438 39.632812 311.371094 41.566406 313.800781 43.558594 C 316.226562 45.550781 318.605469 47.601562 320.933594 49.710938 C 323.257812 51.816406 325.53125 53.984375 327.753906 56.203125 C 329.972656 58.425781 332.140625 60.699219 334.246094 63.023438 C 336.355469 65.351562 338.40625 67.730469 340.398438 70.15625 C 342.390625 72.585938 344.324219 75.058594 346.195312 77.582031 C 348.066406 80.105469 349.871094 82.671875 351.617188 85.28125 C 353.363281 87.894531 355.042969 90.546875 356.65625 93.238281 C 358.269531 95.933594 359.816406 98.664062 361.296875 101.433594 C 362.777344 104.203125 364.191406 107.007812 365.53125 109.847656 C 366.875 112.6875 368.148438 115.554688 369.351562 118.457031 C 370.550781 121.359375 371.679688 124.289062 372.738281 127.246094 C 373.796875 130.203125 374.78125 133.183594 375.695312 136.1875 C 376.605469 139.191406 377.441406 142.21875 378.207031 145.265625 C 378.96875 148.3125 379.65625 151.375 380.269531 154.453125 C 380.882812 157.535156 381.417969 160.628906 381.878906 163.734375 C 382.339844 166.839844 382.726562 169.957031 383.03125 173.082031 C 383.339844 176.207031 383.570312 179.339844 383.726562 182.476562 C 383.878906 185.613281 383.957031 188.75 383.957031 191.890625 Z M 383.957031 191.890625 "/></g><path style=" stroke:none;fill-rule:nonzero;fill:#4267b2;fill-opacity:1;" d="M 192.066406 233.324219 L 197.46875 238.726562 L 194.257812 244.835938 L 189.875 244.835938 L 189.875 244.757812 L 186.660156 238.726562 Z M 192.066406 233.324219 "/><path style=" stroke:none;fill-rule:nonzero;fill:#4267b2;fill-opacity:1;" d="M 185.644531 247.96875 L 178.59375 301.933594 L 143.820312 301.933594 L 143.820312 250.867188 C 143.820312 249.457031 142.644531 248.28125 141.234375 248.28125 C 139.824219 248.28125 138.648438 249.457031 138.648438 250.867188 L 138.648438 301.933594 L 116.71875 301.933594 L 116.71875 256.429688 C 116.71875 244.289062 121.734375 232.304688 130.425781 223.769531 C 137.082031 217.1875 145.308594 213.039062 154.15625 211.550781 L 176.402344 244.601562 C 176.871094 245.226562 177.578125 245.699219 178.28125 245.777344 C 178.359375 245.777344 178.4375 245.777344 178.515625 245.777344 C 179.222656 245.777344 179.847656 245.542969 180.394531 244.992188 L 182.824219 242.644531 Z M 185.644531 247.96875 "/><path style=" stroke:none;fill-rule:nonzero;fill:#4267b2;fill-opacity:1;" d="M 193.476562 250.085938 L 200.289062 301.933594 L 183.84375 301.933594 L 190.65625 250.085938 Z M 193.476562 250.085938 "/><path style=" stroke:none;fill-rule:nonzero;fill:#4267b2;fill-opacity:1;" d="M 267.570312 256.429688 L 267.570312 301.933594 L 245.640625 301.933594 L 245.640625 250.867188 C 245.640625 249.457031 244.464844 248.28125 243.054688 248.28125 C 241.644531 248.28125 240.46875 249.457031 240.46875 250.867188 L 240.46875 301.933594 L 205.695312 301.933594 L 198.644531 247.96875 L 201.464844 242.566406 L 203.894531 244.914062 C 204.363281 245.386719 205.066406 245.699219 205.773438 245.699219 C 205.851562 245.699219 205.929688 245.699219 206.007812 245.699219 C 206.789062 245.621094 207.496094 245.226562 207.886719 244.523438 L 230.132812 211.550781 C 251.355469 215.308594 267.570312 234.027344 267.570312 256.429688 Z M 267.570312 256.429688 "/><path style=" stroke:none;fill-rule:nonzero;fill:#4267b2;fill-opacity:1;" d="M 224.101562 210.921875 L 205.222656 239.039062 L 202.640625 236.535156 C 202.5625 236.457031 202.5625 236.378906 202.484375 236.378906 L 195.589844 229.5625 L 210.550781 211.15625 L 210.707031 211 L 222.140625 211 C 222.769531 210.84375 223.394531 210.921875 224.101562 210.921875 Z M 224.101562 210.921875 "/><path style=" stroke:none;fill-rule:nonzero;fill:#4267b2;fill-opacity:1;" d="M 188.542969 229.484375 L 181.726562 236.300781 C 181.648438 236.378906 181.570312 236.457031 181.492188 236.535156 L 178.988281 239.039062 L 160.03125 210.921875 C 160.738281 210.921875 161.363281 210.921875 162.070312 210.921875 L 173.503906 211.078125 Z M 188.542969 229.484375 "/><path style=" stroke:none;fill-rule:nonzero;fill:#4267b2;fill-opacity:1;" d="M 206.789062 194.554688 L 206.789062 207.320312 L 192.066406 225.492188 L 177.339844 207.554688 L 177.339844 194.632812 C 182.039062 196.667969 186.976562 197.6875 192.066406 197.6875 C 197.15625 197.6875 202.089844 196.589844 206.789062 194.554688 Z M 206.789062 194.554688 "/><path style=" stroke:none;fill-rule:nonzero;fill:#4267b2;fill-opacity:1;" d="M 196.6875 164.007812 C 196.6875 164.398438 196.609375 164.710938 196.53125 165.105469 C 196.0625 166.984375 194.335938 168.316406 192.378906 168.316406 C 190.03125 168.316406 188.070312 166.355469 188.070312 164.007812 C 188.070312 161.65625 190.03125 159.699219 192.378906 159.699219 C 194.730469 159.699219 196.6875 161.65625 196.6875 164.007812 Z M 196.6875 164.007812 "/><path style=" stroke:none;fill-rule:nonzero;fill:#4267b2;fill-opacity:1;" d="M 243.210938 144.660156 L 243.210938 155.390625 C 243.210938 158.445312 240.703125 160.875 237.726562 160.875 L 232.246094 160.875 L 232.246094 139.101562 L 237.726562 139.101562 C 237.808594 139.101562 237.886719 139.101562 237.964844 139.101562 C 237.964844 139.101562 238.042969 139.101562 238.042969 139.101562 C 240.859375 139.335938 243.210938 141.765625 243.210938 144.660156 Z M 243.210938 144.660156 "/><path style=" stroke:none;fill-rule:nonzero;fill:#4267b2;fill-opacity:1;" d="M 151.964844 140.039062 L 151.964844 160.875 L 146.484375 160.875 C 143.429688 160.875 141 158.367188 141 155.390625 L 141 144.660156 C 141 141.6875 143.347656 139.335938 146.246094 139.179688 C 146.324219 139.179688 146.402344 139.179688 146.5625 139.179688 L 152.042969 139.179688 L 152.042969 140.039062 Z M 151.964844 140.039062 "/><path style=" stroke:none;fill-rule:nonzero;fill:#4267b2;fill-opacity:1;" d="M 235.847656 133.933594 L 230.523438 133.933594 C 226.917969 122.183594 222.140625 114.585938 216.109375 111.140625 C 215.25 110.667969 214.230469 110.667969 213.449219 111.21875 C 213.371094 111.296875 204.910156 116.386719 191.988281 116.9375 C 179.222656 116.464844 170.683594 111.296875 170.527344 111.21875 C 169.746094 110.75 168.726562 110.667969 167.863281 111.140625 C 161.832031 114.585938 157.054688 122.261719 153.453125 133.933594 L 148.285156 133.933594 C 147.65625 125.707031 147.890625 106.832031 159.640625 93.910156 C 167.160156 85.683594 178.125 81.613281 192.222656 81.925781 L 192.300781 81.925781 C 206.320312 81.613281 217.285156 85.683594 224.726562 93.910156 C 236.554688 106.753906 236.554688 125.707031 235.847656 133.933594 Z M 235.847656 133.933594 "/><path style=" stroke:none;fill-rule:nonzero;fill:#4267b2;fill-opacity:1;" d="M 226.917969 140.433594 L 226.917969 163.066406 C 225.824219 166.4375 224.492188 169.570312 222.925781 172.464844 L 201.933594 164.164062 L 201.933594 164.085938 C 201.933594 158.839844 197.628906 154.53125 192.378906 154.53125 C 187.132812 154.53125 182.824219 158.839844 182.824219 164.085938 C 182.824219 169.332031 187.132812 173.640625 192.378906 173.640625 C 195.746094 173.640625 198.722656 171.917969 200.445312 169.253906 L 220.105469 177.085938 C 216.816406 181.707031 212.898438 185.390625 208.4375 188.050781 C 208.199219 188.132812 207.964844 188.289062 207.730469 188.445312 C 202.953125 191.105469 197.628906 192.59375 191.988281 192.59375 C 186.269531 192.59375 180.789062 191.105469 175.933594 188.289062 C 167.550781 183.429688 160.816406 174.738281 157.132812 163.222656 L 157.132812 140.589844 C 160.109375 128.683594 164.417969 120.304688 169.273438 116.699219 C 172.484375 118.34375 180.632812 121.949219 191.832031 122.339844 L 191.988281 122.339844 C 203.1875 121.949219 211.332031 118.34375 214.542969 116.699219 C 219.636719 120.070312 223.945312 128.527344 226.917969 140.433594 Z M 226.917969 140.433594 "/><path style=" stroke:none;fill-rule:nonzero;fill:#4267b2;fill-opacity:1;" d="M 240.859375 181.238281 C 240.859375 182.101562 240.46875 182.960938 239.765625 183.433594 C 239.292969 183.746094 238.824219 183.902344 238.277344 183.902344 C 237.964844 183.902344 237.648438 183.824219 237.335938 183.746094 L 225.117188 178.890625 C 226.058594 177.402344 227 175.914062 227.859375 174.347656 L 235.535156 177.402344 L 235.144531 166.121094 L 237.648438 166.121094 C 238.589844 166.121094 239.453125 165.964844 240.3125 165.808594 Z M 240.859375 181.238281 "/></g></svg>