<svg xmlns="http://www.w3.org/2000/svg" xmlns:xlink="http://www.w3.org/1999/xlink" width="512" zoomAndPan="magnify" viewBox="0 0 384 391.91998" height="512" preserveAspectRatio="xMidYMid meet" version="1.2"><defs><clipPath id="eb66e1cc66"><path d="M 0.175781 0 L 383.960938 0 L 383.960938 383.921875 L 0.175781 383.921875 Z M 0.175781 0 "/></clipPath><clipPath id="f8c09e57bf"><path d="M 132 55 L 295 55 L 295 383.921875 L 132 383.921875 Z M 132 55 "/></clipPath><clipPath id="fd42697f94"><path d="M 120 43 L 308 43 L 308 383.921875 L 120 383.921875 Z M 120 43 "/></clipPath></defs><g id="27db5446c4"><g clip-rule="nonzero" clip-path="url(#eb66e1cc66)"><path style="fill-rule:nonzero;fill:#4267b2;fill-opacity:1;stroke-width:1;stroke-linecap:butt;stroke-linejoin:miter;stroke:#4267b2;stroke-opacity:1;stroke-miterlimit:10;" d="M 462.701842 234.600285 C 462.701842 238.235579 462.611186 241.870872 462.434407 245.501634 C 462.253096 249.136928 461.985662 252.758623 461.632104 256.380319 C 461.274014 259.997482 460.829801 263.605579 460.294933 267.204611 C 459.760064 270.79911 459.139072 274.384543 458.431958 277.947312 C 457.72031 281.514615 456.92254 285.063786 456.04318 288.590293 C 455.159287 292.1168 454.189271 295.620643 453.133132 299.101823 C 452.076993 302.583002 450.934731 306.032452 449.710878 309.454705 C 448.487026 312.881491 447.177051 316.272014 445.785486 319.630808 C 444.393921 322.994135 442.920766 326.316667 441.36602 329.602936 C 439.811275 332.889206 438.174939 336.139213 436.461546 339.343892 C 434.748153 342.553105 432.957703 345.712456 431.085663 348.835545 C 429.218155 351.954102 427.27359 355.022798 425.251968 358.046165 C 423.230345 361.069533 421.140731 364.043041 418.97406 366.962155 C 416.807388 369.885801 414.568192 372.750522 412.261004 375.560849 C 409.953817 378.371176 407.58317 381.127109 405.139998 383.819584 C 402.696827 386.516591 400.190197 389.145607 397.620107 391.720229 C 395.045485 394.290319 392.416469 396.796949 389.719462 399.24012 C 387.026987 401.683292 384.271054 404.053939 381.460727 406.361126 C 378.6504 408.668314 375.785679 410.90751 372.866565 413.074182 C 369.942919 415.240853 366.969411 417.330467 363.946044 419.35209 C 360.922676 421.373712 357.85398 423.318277 354.735423 425.185785 C 351.612334 427.057825 348.452983 428.848275 345.24377 430.561668 C 342.039091 432.275061 338.789084 433.911397 335.502814 435.466142 C 332.216545 437.020888 328.894013 438.494043 325.530686 439.885608 C 322.171892 441.277173 318.781369 442.587148 315.359116 443.811 C 311.93233 445.034853 308.48288 446.177114 305.001701 447.233253 C 301.520521 448.289393 298.016678 449.259409 294.490171 450.138769 C 290.963664 451.022662 287.414493 451.820432 283.847191 452.53208 C 280.284421 453.239194 276.698988 453.860186 273.104489 454.395055 C 269.505457 454.929923 265.89736 455.374136 262.280197 455.732226 C 258.658501 456.085784 255.036806 456.353218 251.401512 456.534529 C 247.770751 456.711308 244.135457 456.801964 240.500163 456.801964 C 236.864869 456.801964 233.229575 456.711308 229.598813 456.534529 C 225.963519 456.353218 222.337291 456.085784 218.720128 455.732226 C 215.102965 455.374136 211.494868 454.929923 207.895836 454.395055 C 204.301337 453.860186 200.715904 453.239194 197.153135 452.53208 C 193.585832 451.820432 190.036661 451.022662 186.510154 450.138769 C 182.983647 449.259409 179.479804 448.289393 175.998625 447.233253 C 172.517445 446.177114 169.067995 445.034853 165.64121 443.811 C 162.218957 442.587148 158.828433 441.277173 155.469639 439.885608 C 152.106312 438.494043 148.78378 437.020888 145.497511 435.466142 C 142.211241 433.911397 138.961234 432.275061 135.756555 430.561668 C 132.547343 428.848275 129.383458 427.057825 126.264902 425.185785 C 123.146345 423.318277 120.07765 421.373712 117.054282 419.35209 C 114.030914 417.330467 111.057406 415.240853 108.13376 413.074182 C 105.214646 410.90751 102.349925 408.668314 99.539598 406.361126 C 96.724739 404.053939 93.973338 401.683292 91.280863 399.24012 C 88.583856 396.796949 85.950307 394.290319 83.380218 391.720229 C 80.810129 389.145607 78.303498 386.516591 75.860327 383.819584 C 73.417155 381.127109 71.041976 378.371176 68.739321 375.560849 C 66.432133 372.750522 64.192937 369.885801 62.026265 366.962155 C 59.859594 364.043041 57.76998 361.069533 55.748357 358.046165 C 53.726735 355.022798 51.78217 351.954102 49.914662 348.835545 C 48.042622 345.712456 46.252172 342.553105 44.538779 339.343892 C 42.820853 336.139213 41.18905 332.889206 39.634305 329.602936 C 38.079559 326.316667 36.606404 322.994135 35.214839 319.630808 C 33.823274 316.272014 32.513299 312.881491 31.289447 309.454705 C 30.065595 306.032452 28.923333 302.583002 27.867194 299.101823 C 26.811055 295.620643 25.841038 292.1168 24.957145 288.590293 C 24.073252 285.063786 23.280015 281.514615 22.568367 277.947312 C 21.861253 274.384543 21.240261 270.79911 20.705392 267.204611 C 20.170524 263.605579 19.726311 259.997482 19.368221 256.380319 C 19.014663 252.758623 18.747229 249.136928 18.565918 245.501634 C 18.389139 241.870872 18.298483 238.235579 18.298483 234.600285 C 18.298483 230.964991 18.389139 227.329697 18.565918 223.698935 C 18.747229 220.063641 19.014663 216.437413 19.368221 212.82025 C 19.726311 209.203087 20.170524 205.59499 20.705392 201.995958 C 21.240261 198.401459 21.861253 194.816026 22.568367 191.248724 C 23.280015 187.685954 24.073252 184.136783 24.957145 180.610276 C 25.841038 177.083769 26.811055 173.579926 27.867194 170.098746 C 28.923333 166.617567 30.065595 163.168117 31.289447 159.741332 C 32.513299 156.319079 33.823274 152.928555 35.214839 149.569761 C 36.606404 146.206434 38.079559 142.883902 39.634305 139.597633 C 41.18905 136.311363 42.820853 133.061356 44.538779 129.856677 C 46.252172 126.647464 48.042622 123.48358 49.914662 120.365024 C 51.78217 117.246467 53.726735 114.177771 55.748357 111.154404 C 57.76998 108.126503 59.859594 105.157528 62.026265 102.233882 C 64.192937 99.314768 66.432133 96.450047 68.739321 93.63972 C 71.041976 90.82486 73.417155 88.07346 75.860327 85.380985 C 78.303498 82.683978 80.810129 80.050429 83.380218 77.48034 C 85.950307 74.91025 88.583856 72.40362 91.280863 69.960449 C 93.973338 67.517277 96.724739 65.142098 99.539598 62.83491 C 102.349925 60.532255 105.214646 58.293059 108.13376 56.126387 C 111.057406 53.959716 114.030914 51.865569 117.054282 49.848479 C 120.07765 47.826857 123.146345 45.882292 126.264902 44.014784 C 129.383458 42.142744 132.547343 40.352294 135.756555 38.638901 C 138.961234 36.920975 142.211241 35.289172 145.497511 33.734427 C 148.78378 32.179681 152.106312 30.706526 155.469639 29.314961 C 158.828433 27.923396 162.218957 26.613421 165.64121 25.389569 C 169.067995 24.165717 172.517445 23.023455 175.998625 21.967316 C 179.479804 20.911177 182.983647 19.94116 186.510154 19.057267 C 190.036661 18.173374 193.585832 17.380137 197.153135 16.668489 C 200.715904 15.961375 204.301337 15.340383 207.895836 14.805514 C 211.494868 14.270646 215.102965 13.826433 218.720128 13.468343 C 222.337291 13.114785 225.963519 12.847351 229.598813 12.66604 C 233.229575 12.489261 236.864869 12.398605 240.500163 12.398605 C 244.135457 12.398605 247.770751 12.489261 251.401512 12.66604 C 255.036806 12.847351 258.658501 13.114785 262.280197 13.468343 C 265.89736 13.826433 269.505457 14.270646 273.104489 14.805514 C 276.698988 15.340383 280.284421 15.961375 283.847191 16.668489 C 287.414493 17.380137 290.963664 18.173374 294.490171 19.057267 C 298.016678 19.94116 301.520521 20.911177 305.001701 21.967316 C 308.48288 23.023455 311.93233 24.165717 315.359116 25.389569 C 318.781369 26.613421 322.171892 27.923396 325.530686 29.314961 C 328.894013 30.706526 332.216545 32.179681 335.502814 33.734427 C 338.789084 35.289172 342.039091 36.920975 345.24377 38.638901 C 348.452983 40.352294 351.612334 42.142744 354.735423 44.014784 C 357.85398 45.882292 360.922676 47.826857 363.946044 49.848479 C 366.969411 51.865569 369.942919 53.959716 372.866565 56.126387 C 375.785679 58.293059 378.6504 60.532255 381.460727 62.83491 C 384.271054 65.142098 387.026987 67.517277 389.719462 69.960449 C 392.416469 72.40362 395.045485 74.91025 397.620107 77.48034 C 400.190197 80.050429 402.696827 82.683978 405.139998 85.380985 C 407.58317 88.07346 409.953817 90.82486 412.261004 93.63972 C 414.568192 96.450047 416.807388 99.314768 418.97406 102.233882 C 421.140731 105.157528 423.230345 108.126503 425.251968 111.154404 C 427.27359 114.177771 429.218155 117.246467 431.085663 120.365024 C 432.957703 123.48358 434.748153 126.647464 436.461546 129.856677 C 438.174939 133.061356 439.811275 136.311363 441.36602 139.597633 C 442.920766 142.883902 444.393921 146.206434 445.785486 149.569761 C 447.177051 152.928555 448.487026 156.319079 449.710878 159.741332 C 450.934731 163.168117 452.076993 166.617567 453.133132 170.098746 C 454.189271 173.579926 455.159287 177.083769 456.04318 180.610276 C 456.92254 184.136783 457.72031 187.685954 458.431958 191.248724 C 459.139072 194.816026 459.760064 198.401459 460.294933 201.995958 C 460.829801 205.59499 461.274014 209.203087 461.632104 212.82025 C 461.985662 216.437413 462.253096 220.063641 462.434407 223.698935 C 462.611186 227.329697 462.701842 230.964991 462.701842 234.600285 Z M 462.701842 234.600285 " transform="matrix(0.861777,0,0,0.861777,-15.120773,-10.255145)"/></g><g clip-rule="nonzero" clip-path="url(#f8c09e57bf)"><path style=" stroke:none;fill-rule:nonzero;fill:#ffffff;fill-opacity:1;" d="M 237.121094 56.964844 C 221.867188 59.722656 216.609375 62.304688 207.820312 67.304688 C 198.425781 72.648438 191.878906 78.25 187.398438 82.816406 C 172.746094 97.984375 169.472656 112.117188 166.714844 123.0625 C 162.578125 139.175781 163.007812 154.34375 163.007812 154.34375 L 163.007812 166.152344 L 132.242188 166.152344 L 132.242188 219.667969 L 163.007812 219.667969 L 163.007812 381.25 C 172.488281 382.714844 182.226562 383.492188 192.136719 383.492188 C 206.785156 383.492188 221.09375 381.851562 234.792969 378.75 L 234.792969 219.667969 L 281.589844 219.667969 L 281.589844 166.152344 L 234.792969 166.152344 L 234.792969 154.773438 C 234.792969 154.773438 234.792969 152.707031 234.792969 152.449219 C 234.792969 152.191406 234.792969 151.84375 234.792969 151.585938 C 234.792969 149.257812 234.878906 145.8125 235.398438 142.796875 C 236.691406 134.953125 239.363281 128.835938 243.84375 123.40625 C 249.015625 117.203125 255.046875 114.53125 261.769531 113.496094 C 278.402344 110.910156 292.273438 116.683594 292.273438 116.683594 L 294.859375 60.410156 C 294.859375 60.410156 284.433594 57.050781 267.199219 55.84375 C 255.046875 54.980469 244.273438 55.671875 237.121094 56.964844 Z M 237.121094 56.964844 "/></g><g clip-rule="nonzero" clip-path="url(#fd42697f94)"><path style="fill:none;stroke-width:1;stroke-linecap:butt;stroke-linejoin:miter;stroke:#ffffff;stroke-opacity:1;stroke-miterlimit:10;" d="M 292.699721 78.00161 C 274.999193 81.201757 268.898064 84.197928 258.699296 89.999893 C 247.797947 96.200744 240.200999 102.700759 235.001894 107.999585 C 217.999415 125.600391 214.200941 142.000009 211.000794 154.700874 C 206.200575 173.398614 206.699181 190.999421 206.699181 190.999421 L 206.699181 204.702031 L 170.998962 204.702031 L 170.998962 266.801193 L 206.699181 266.801193 L 206.699181 454.299866 C 217.700251 455.999661 229.000486 456.901685 240.500163 456.901685 C 257.498108 456.901685 274.101702 454.997915 289.998181 451.398883 L 289.998181 266.801193 L 344.300951 266.801193 L 344.300951 204.702031 L 289.998181 204.702031 L 289.998181 191.498027 C 289.998181 191.498027 289.998181 189.100183 289.998181 188.80102 C 289.998181 188.501856 289.998181 188.098438 289.998181 187.799274 C 289.998181 185.097734 290.097902 181.099817 290.700762 177.600507 C 292.201114 168.498673 295.30154 161.400331 300.500645 155.099759 C 306.502053 147.901696 313.500673 144.80127 321.301597 143.600082 C 340.602198 140.599378 356.698119 147.298835 356.698119 147.298835 L 359.698824 81.999527 C 359.698824 81.999527 347.600819 78.101331 327.602169 76.700701 C 313.500673 75.698955 300.999251 76.501258 292.699721 78.00161 Z M 292.699721 78.00161 " transform="matrix(0.861777,0,0,0.861777,-15.120773,-10.255145)"/></g></g></svg>