<svg xmlns="http://www.w3.org/2000/svg" xmlns:xlink="http://www.w3.org/1999/xlink" width="512" zoomAndPan="magnify" viewBox="0 0 384 391.91998" height="512" preserveAspectRatio="xMidYMid meet" version="1.2"><defs><clipPath id="6ed9220cc7"><path d="M 0.953125 0.914062 L 383.960938 0.914062 L 383.960938 383.921875 L 0.953125 383.921875 Z M 0.953125 0.914062 "/></clipPath></defs><g id="4c925f78d1"><g clip-rule="nonzero" clip-path="url(#6ed9220cc7)"><path style=" stroke:none;fill-rule:nonzero;fill:#5e17eb;fill-opacity:1;" d="M 383.949219 192.414062 C 383.949219 195.546875 383.875 198.679688 383.71875 201.808594 C 383.566406 204.941406 383.335938 208.0625 383.027344 211.183594 C 382.722656 214.300781 382.335938 217.410156 381.878906 220.511719 C 381.417969 223.613281 380.882812 226.699219 380.269531 229.773438 C 379.660156 232.847656 378.972656 235.902344 378.210938 238.941406 C 377.449219 241.984375 376.613281 245.003906 375.703125 248.003906 C 374.792969 251 373.8125 253.976562 372.757812 256.925781 C 371.699219 259.878906 370.574219 262.800781 369.375 265.695312 C 368.175781 268.589844 366.90625 271.457031 365.5625 274.289062 C 364.222656 277.121094 362.816406 279.921875 361.339844 282.683594 C 359.859375 285.449219 358.316406 288.175781 356.707031 290.863281 C 355.09375 293.550781 353.417969 296.199219 351.675781 298.804688 C 349.9375 301.410156 348.132812 303.972656 346.265625 306.488281 C 344.398438 309.003906 342.46875 311.476562 340.480469 313.898438 C 338.492188 316.320312 336.449219 318.691406 334.34375 321.015625 C 332.238281 323.335938 330.078125 325.605469 327.863281 327.824219 C 325.644531 330.039062 323.375 332.199219 321.054688 334.304688 C 318.730469 336.410156 316.359375 338.453125 313.9375 340.441406 C 311.515625 342.429688 309.042969 344.359375 306.527344 346.226562 C 304.011719 348.09375 301.449219 349.898438 298.84375 351.636719 C 296.238281 353.378906 293.589844 355.054688 290.902344 356.667969 C 288.214844 358.277344 285.488281 359.820312 282.722656 361.300781 C 279.960938 362.777344 277.160156 364.183594 274.328125 365.523438 C 271.496094 366.863281 268.628906 368.132812 265.734375 369.335938 C 262.839844 370.535156 259.917969 371.660156 256.964844 372.714844 C 254.015625 373.773438 251.039062 374.753906 248.042969 375.664062 C 245.042969 376.574219 242.023438 377.410156 238.984375 378.171875 C 235.941406 378.933594 232.886719 379.621094 229.8125 380.230469 C 226.738281 380.84375 223.652344 381.378906 220.550781 381.839844 C 217.449219 382.296875 214.339844 382.683594 211.222656 382.988281 C 208.101562 383.296875 204.980469 383.527344 201.847656 383.679688 C 198.71875 383.835938 195.585938 383.910156 192.453125 383.910156 C 189.316406 383.910156 186.1875 383.835938 183.054688 383.679688 C 179.925781 383.527344 176.800781 383.296875 173.683594 382.988281 C 170.5625 382.683594 167.453125 382.296875 164.355469 381.839844 C 161.253906 381.378906 158.167969 380.84375 155.09375 380.230469 C 152.019531 379.621094 148.960938 378.933594 145.921875 378.171875 C 142.882812 377.410156 139.863281 376.574219 136.863281 375.664062 C 133.863281 374.753906 130.890625 373.773438 127.9375 372.714844 C 124.988281 371.660156 122.066406 370.535156 119.167969 369.335938 C 116.273438 368.132812 113.410156 366.863281 110.578125 365.523438 C 107.742188 364.183594 104.945312 362.777344 102.179688 361.300781 C 99.417969 359.820312 96.691406 358.277344 94.003906 356.667969 C 91.316406 355.054688 88.667969 353.378906 86.0625 351.636719 C 83.457031 349.898438 80.894531 348.09375 78.378906 346.226562 C 75.859375 344.359375 73.390625 342.429688 70.96875 340.441406 C 68.542969 338.453125 66.171875 336.410156 63.851562 334.304688 C 61.527344 332.199219 59.257812 330.039062 57.042969 327.824219 C 54.828125 325.605469 52.667969 323.335938 50.5625 321.015625 C 48.457031 318.691406 46.410156 316.320312 44.421875 313.898438 C 42.433594 311.476562 40.507812 309.003906 38.640625 306.488281 C 36.773438 303.972656 34.96875 301.410156 33.226562 298.804688 C 31.488281 296.199219 29.808594 293.550781 28.199219 290.863281 C 26.585938 288.175781 25.042969 285.449219 23.566406 282.683594 C 22.089844 279.921875 20.679688 277.121094 19.339844 274.289062 C 18 271.457031 16.730469 268.589844 15.53125 265.695312 C 14.332031 262.800781 13.203125 259.878906 12.148438 256.925781 C 11.09375 253.976562 10.109375 251 9.199219 248.003906 C 8.289062 245.003906 7.453125 241.984375 6.691406 238.941406 C 5.933594 235.902344 5.246094 232.847656 4.632812 229.773438 C 4.023438 226.699219 3.488281 223.613281 3.027344 220.511719 C 2.566406 217.410156 2.183594 214.300781 1.875 211.183594 C 1.570312 208.0625 1.339844 204.941406 1.183594 201.808594 C 1.03125 198.679688 0.953125 195.546875 0.953125 192.414062 C 0.953125 189.277344 1.03125 186.148438 1.183594 183.015625 C 1.339844 179.886719 1.570312 176.761719 1.875 173.644531 C 2.183594 170.523438 2.566406 167.414062 3.027344 164.3125 C 3.488281 161.214844 4.023438 158.128906 4.632812 155.054688 C 5.246094 151.980469 5.933594 148.921875 6.691406 145.882812 C 7.453125 142.84375 8.289062 139.824219 9.199219 136.824219 C 10.109375 133.824219 11.09375 130.851562 12.148438 127.898438 C 13.203125 124.949219 14.332031 122.023438 15.53125 119.128906 C 16.730469 116.234375 18 113.371094 19.339844 110.535156 C 20.679688 107.703125 22.089844 104.90625 23.566406 102.140625 C 25.042969 99.378906 26.585938 96.652344 28.199219 93.964844 C 29.808594 91.273438 31.488281 88.628906 33.226562 86.023438 C 34.96875 83.417969 36.773438 80.855469 38.640625 78.335938 C 40.507812 75.820312 42.433594 73.351562 44.421875 70.929688 C 46.410156 68.503906 48.457031 66.132812 50.5625 63.8125 C 52.667969 61.488281 54.828125 59.21875 57.042969 57.003906 C 59.257812 54.789062 61.527344 52.628906 63.851562 50.523438 C 66.171875 48.417969 68.542969 46.371094 70.96875 44.382812 C 73.390625 42.394531 75.859375 40.46875 78.378906 38.601562 C 80.894531 36.734375 83.457031 34.929688 86.0625 33.1875 C 88.667969 31.445312 91.316406 29.769531 94.003906 28.160156 C 96.691406 26.546875 99.417969 25.003906 102.179688 23.527344 C 104.945312 22.050781 107.742188 20.640625 110.578125 19.300781 C 113.410156 17.960938 116.273438 16.691406 119.167969 15.492188 C 122.066406 14.292969 124.988281 13.164062 127.9375 12.109375 C 130.890625 11.054688 133.863281 10.070312 136.863281 9.160156 C 139.863281 8.25 142.882812 7.414062 145.921875 6.652344 C 148.960938 5.890625 152.019531 5.207031 155.09375 4.59375 C 158.167969 3.984375 161.253906 3.449219 164.355469 2.988281 C 167.453125 2.527344 170.5625 2.144531 173.683594 1.835938 C 176.800781 1.53125 179.925781 1.300781 183.054688 1.144531 C 186.1875 0.992188 189.316406 0.914062 192.453125 0.914062 C 195.585938 0.914062 198.71875 0.992188 201.847656 1.144531 C 204.980469 1.300781 208.101562 1.53125 211.222656 1.835938 C 214.339844 2.144531 217.449219 2.527344 220.550781 2.988281 C 223.652344 3.449219 226.738281 3.984375 229.8125 4.59375 C 232.886719 5.207031 235.941406 5.890625 238.984375 6.652344 C 242.023438 7.414062 245.042969 8.25 248.042969 9.160156 C 251.039062 10.070312 254.015625 11.054688 256.964844 12.109375 C 259.917969 13.164062 262.839844 14.292969 265.734375 15.492188 C 268.628906 16.691406 271.496094 17.960938 274.328125 19.300781 C 277.160156 20.640625 279.960938 22.050781 282.722656 23.527344 C 285.488281 25.003906 288.214844 26.546875 290.902344 28.160156 C 293.589844 29.769531 296.238281 31.445312 298.84375 33.1875 C 301.449219 34.929688 304.011719 36.734375 306.527344 38.601562 C 309.042969 40.46875 311.515625 42.394531 313.9375 44.382812 C 316.359375 46.371094 318.730469 48.417969 321.054688 50.523438 C 323.375 52.628906 325.644531 54.789062 327.863281 57.003906 C 330.078125 59.21875 332.238281 61.488281 334.34375 63.8125 C 336.449219 66.132812 338.492188 68.503906 340.480469 70.929688 C 342.46875 73.351562 344.398438 75.820312 346.265625 78.335938 C 348.132812 80.855469 349.9375 83.417969 351.675781 86.023438 C 353.417969 88.628906 355.09375 91.273438 356.707031 93.964844 C 358.316406 96.652344 359.859375 99.378906 361.339844 102.140625 C 362.816406 104.90625 364.222656 107.703125 365.5625 110.535156 C 366.90625 113.371094 368.175781 116.234375 369.375 119.128906 C 370.574219 122.023438 371.699219 124.949219 372.757812 127.898438 C 373.8125 130.851562 374.792969 133.824219 375.703125 136.824219 C 376.613281 139.824219 377.449219 142.84375 378.210938 145.882812 C 378.972656 148.921875 379.660156 151.980469 380.269531 155.054688 C 380.882812 158.128906 381.417969 161.214844 381.878906 164.3125 C 382.335938 167.414062 382.722656 170.523438 383.027344 173.644531 C 383.335938 176.761719 383.566406 179.886719 383.71875 183.015625 C 383.875 186.148438 383.949219 189.277344 383.949219 192.414062 Z M 383.949219 192.414062 "/></g><path style=" stroke:none;fill-rule:nonzero;fill:#e6e6e6;fill-opacity:1;" d="M 168.117188 298.933594 C 166.441406 298.933594 156.386719 298.773438 145.695312 294.546875 C 131.09375 288.800781 122.078125 278.109375 119.523438 263.585938 L 113.9375 263.585938 C 112.820312 263.585938 111.863281 263.027344 111.304688 262.070312 C 110.746094 261.113281 110.828125 259.996094 111.386719 259.039062 L 125.109375 237.574219 C 125.667969 236.777344 126.546875 236.21875 127.503906 236.21875 C 128.460938 236.136719 129.417969 236.695312 129.976562 237.414062 L 144.898438 257.921875 C 145.535156 258.800781 145.613281 259.996094 145.136719 260.953125 C 144.65625 261.910156 143.621094 262.550781 142.503906 262.550781 L 139.390625 262.550781 C 142.582031 268.933594 150.960938 281.0625 168.433594 282.816406 C 169.953125 282.976562 171.066406 284.253906 171.066406 285.769531 L 171.066406 295.820312 C 171.066406 297.417969 169.792969 298.773438 168.195312 298.773438 C 168.355469 298.933594 168.277344 298.933594 168.117188 298.933594 Z M 122.15625 257.683594 C 123.59375 257.683594 124.871094 258.800781 125.109375 260.316406 C 126.703125 274.039062 134.445312 283.773438 147.929688 289.121094 C 154.871094 291.832031 161.652344 292.710938 165.402344 292.949219 L 165.402344 288.5625 C 152.636719 286.488281 144.496094 279.464844 139.789062 273.800781 C 134.363281 267.257812 132.371094 260.953125 132.289062 260.714844 C 131.972656 259.835938 132.128906 258.878906 132.769531 258.082031 C 133.40625 257.28125 134.203125 256.882812 135.164062 256.882812 L 136.996094 256.882812 L 127.980469 244.515625 L 119.523438 257.839844 L 122.15625 257.839844 Z M 122.15625 257.683594 "/><path style=" stroke:none;fill-rule:nonzero;fill:#e6e6e6;fill-opacity:1;" d="M 250.621094 151.640625 C 249.820312 151.640625 249.105469 151.320312 248.546875 150.761719 L 230.59375 132.808594 C 229.792969 132.011719 229.476562 130.894531 229.875 129.777344 C 230.191406 128.738281 231.070312 127.941406 232.269531 127.78125 L 235.378906 127.304688 C 231.230469 121.480469 221.015625 110.785156 203.464844 111.824219 C 201.949219 111.902344 200.589844 110.867188 200.351562 109.351562 L 198.753906 99.375 C 198.515625 97.78125 199.554688 96.265625 201.148438 96.027344 C 201.628906 95.945312 212.160156 94.191406 224.210938 96.742188 C 239.609375 100.09375 250.140625 109.269531 254.929688 123.234375 L 260.433594 122.355469 C 261.550781 122.195312 262.507812 122.597656 263.226562 123.472656 C 263.945312 124.273438 264.023438 125.46875 263.625 126.503906 L 253.492188 149.964844 C 253.09375 150.84375 252.296875 151.480469 251.335938 151.71875 C 251.019531 151.640625 250.78125 151.640625 250.621094 151.640625 Z M 238.890625 132.808594 L 249.664062 143.582031 L 255.964844 129.058594 L 253.332031 129.539062 C 251.894531 129.777344 250.460938 128.820312 250.0625 127.464844 C 246.3125 114.21875 237.214844 105.839844 223.171875 102.726562 C 215.832031 101.050781 208.890625 101.292969 205.140625 101.609375 L 205.855469 106 C 218.785156 106 227.960938 111.664062 233.464844 116.53125 C 239.769531 122.195312 242.800781 128.023438 242.960938 128.261719 C 243.4375 129.058594 243.4375 130.097656 242.960938 130.894531 C 242.480469 131.691406 241.761719 132.332031 240.804688 132.488281 Z M 238.890625 132.808594 "/><path style=" stroke:none;fill-rule:nonzero;fill:#e6e6e6;fill-opacity:1;" d="M 189.738281 228.878906 L 73.484375 228.878906 C 71.886719 228.878906 70.53125 227.519531 70.53125 225.925781 L 70.53125 180.445312 C 70.53125 169.273438 77.074219 159.058594 87.207031 154.351562 L 112.980469 142.382812 C 114.175781 141.824219 115.695312 142.144531 116.492188 143.183594 L 132.929688 163.769531 L 149.207031 143.183594 C 150.003906 142.066406 151.519531 141.746094 152.714844 142.382812 L 178.488281 154.351562 C 178.726562 154.433594 178.96875 154.59375 179.207031 154.671875 C 187.265625 158.660156 192.292969 166.878906 192.371094 176.136719 L 192.613281 225.84375 C 192.613281 226.644531 192.292969 227.363281 191.8125 227.921875 C 191.253906 228.476562 190.539062 228.878906 189.738281 228.878906 Z M 76.4375 222.972656 L 186.789062 222.972656 L 186.546875 176.214844 C 186.46875 169.351562 182.636719 162.96875 176.652344 160.019531 C 176.496094 159.9375 176.253906 159.859375 176.09375 159.699219 L 152.398438 148.6875 L 135.242188 170.3125 C 134.683594 171.027344 133.804688 171.429688 132.929688 171.429688 C 131.972656 171.429688 131.171875 171.027344 130.613281 170.3125 L 129.894531 169.433594 L 113.300781 148.609375 L 89.683594 159.699219 C 81.621094 163.449219 76.4375 171.585938 76.4375 180.445312 C 76.4375 180.445312 76.4375 222.972656 76.4375 222.972656 Z M 76.4375 222.972656 "/><path style=" stroke:none;fill-rule:nonzero;fill:#e6e6e6;fill-opacity:1;" d="M 124.070312 181.242188 C 123.195312 181.242188 122.316406 180.84375 121.835938 180.125 L 99.257812 152.757812 C 98.21875 151.480469 98.378906 149.644531 99.65625 148.609375 C 100.933594 147.570312 102.765625 147.730469 103.804688 149.007812 L 124.070312 173.421875 L 129.894531 165.761719 C 130.855469 164.484375 132.769531 164.246094 134.046875 165.203125 C 135.320312 166.160156 135.5625 168.078125 134.605469 169.351562 L 126.464844 179.964844 C 125.90625 180.761719 125.027344 181.164062 124.070312 181.242188 C 124.152344 181.242188 124.152344 181.242188 124.070312 181.242188 Z M 124.070312 181.242188 "/><path style=" stroke:none;fill-rule:nonzero;fill:#e6e6e6;fill-opacity:1;" d="M 141.785156 181.242188 C 140.828125 181.242188 140.03125 180.761719 139.390625 180.046875 L 131.253906 169.351562 C 130.296875 168.078125 130.535156 166.242188 131.8125 165.203125 C 133.089844 164.167969 134.921875 164.484375 135.960938 165.761719 L 141.863281 173.503906 L 162.050781 149.085938 C 163.089844 147.808594 164.925781 147.648438 166.199219 148.6875 C 167.476562 149.726562 167.636719 151.558594 166.601562 152.835938 L 144.097656 180.125 C 143.460938 180.84375 142.664062 181.242188 141.785156 181.242188 Z M 141.785156 181.242188 "/><path style=" stroke:none;fill-rule:nonzero;fill:#e6e6e6;fill-opacity:1;" d="M 96.941406 228.878906 C 95.347656 228.878906 93.992188 227.519531 93.992188 225.925781 L 93.992188 185.472656 C 93.992188 183.875 95.347656 182.519531 96.941406 182.519531 C 98.539062 182.519531 99.894531 183.875 99.894531 185.472656 L 99.894531 225.925781 C 99.894531 227.519531 98.539062 228.878906 96.941406 228.878906 Z M 96.941406 228.878906 "/><path style=" stroke:none;fill-rule:nonzero;fill:#e6e6e6;fill-opacity:1;" d="M 166.28125 228.878906 C 164.683594 228.878906 163.328125 227.519531 163.328125 225.925781 L 163.328125 185.472656 C 163.328125 183.875 164.683594 182.519531 166.28125 182.519531 C 167.875 182.519531 169.234375 183.875 169.234375 185.472656 L 169.234375 225.925781 C 169.234375 227.519531 167.957031 228.878906 166.28125 228.878906 Z M 166.28125 228.878906 "/><path style=" stroke:none;fill-rule:nonzero;fill:#e6e6e6;fill-opacity:1;" d="M 132.929688 146.132812 C 132.847656 146.132812 132.847656 146.132812 132.847656 146.132812 L 132.769531 146.132812 C 118.246094 146.054688 106.515625 134.324219 106.515625 119.804688 L 106.515625 100.734375 C 106.515625 97.382812 108.113281 94.269531 110.90625 92.355469 C 115.054688 89.484375 120.71875 90.121094 124.152344 93.792969 C 125.667969 95.46875 127.820312 96.425781 130.054688 96.425781 L 135.5625 96.425781 C 137.796875 96.425781 139.949219 95.46875 141.464844 93.792969 C 144.816406 90.121094 150.5625 89.484375 154.710938 92.355469 C 157.425781 94.269531 159.101562 97.382812 159.101562 100.734375 L 159.101562 119.804688 C 159.179688 134.324219 147.449219 146.132812 132.929688 146.132812 C 133.007812 146.132812 132.929688 146.132812 132.929688 146.132812 Z M 116.730469 96.585938 C 115.933594 96.585938 115.054688 96.824219 114.335938 97.300781 C 113.21875 98.101562 112.5 99.375 112.5 100.8125 L 112.5 119.804688 C 112.5 131.054688 121.597656 140.230469 132.847656 140.230469 C 144.097656 140.230469 153.195312 131.054688 153.195312 119.804688 L 153.195312 100.734375 C 153.195312 99.375 152.476562 98.019531 151.359375 97.222656 C 149.605469 96.027344 147.210938 96.265625 145.773438 97.78125 C 143.140625 100.652344 139.390625 102.328125 135.480469 102.328125 L 129.976562 102.328125 C 126.066406 102.328125 122.316406 100.734375 119.683594 97.78125 C 119.042969 96.984375 117.925781 96.585938 116.730469 96.585938 Z M 116.730469 96.585938 "/><path style=" stroke:none;fill-rule:nonzero;fill:#e6e6e6;fill-opacity:1;" d="M 109.550781 116.613281 C 108.832031 116.613281 108.191406 116.371094 107.632812 115.894531 L 106.515625 114.9375 C 100.613281 109.988281 97.5 102.410156 98.21875 94.75 C 98.777344 88.925781 100.535156 83.898438 103.40625 79.667969 C 109.710938 70.332031 120.320312 67.621094 128.0625 66.980469 C 134.921875 66.421875 142.824219 66.265625 149.285156 69.695312 C 153.832031 72.089844 156.464844 75.519531 157.105469 79.828125 C 157.265625 80.945312 158.0625 81.902344 159.179688 82.222656 C 162.292969 83.179688 166.28125 85.890625 167.476562 93.074219 C 168.835938 100.972656 165.722656 109.191406 159.5 114.539062 L 157.984375 115.8125 C 156.785156 116.929688 154.871094 116.769531 153.832031 115.496094 C 152.714844 114.296875 152.875 112.382812 154.152344 111.34375 L 155.667969 110.070312 C 160.296875 106.078125 162.609375 99.933594 161.652344 94.109375 C 160.773438 88.925781 158.300781 88.207031 157.425781 87.886719 C 154.234375 86.929688 151.757812 84.136719 151.28125 80.785156 C 150.882812 78.390625 149.285156 76.476562 146.492188 74.960938 C 141.304688 72.25 134.445312 72.328125 128.460938 72.886719 C 121.996094 73.445312 113.21875 75.597656 108.191406 83.019531 C 105.878906 86.371094 104.441406 90.519531 104.042969 95.308594 C 103.484375 101.050781 105.800781 106.71875 110.269531 110.46875 L 111.386719 111.425781 C 112.582031 112.460938 112.820312 114.296875 111.703125 115.574219 C 111.226562 116.210938 110.425781 116.613281 109.550781 116.613281 Z M 109.550781 116.613281 "/><path style=" stroke:none;fill-rule:nonzero;fill:#e6e6e6;fill-opacity:1;" d="M 146.253906 154.671875 C 144.65625 154.671875 143.300781 153.316406 143.300781 151.71875 L 143.300781 138.953125 C 143.300781 137.355469 144.65625 136 146.253906 136 C 147.847656 136 149.207031 137.355469 149.207031 138.953125 L 149.207031 151.71875 C 149.207031 153.316406 147.847656 154.671875 146.253906 154.671875 Z M 146.253906 154.671875 "/><path style=" stroke:none;fill-rule:nonzero;fill:#e6e6e6;fill-opacity:1;" d="M 119.523438 154.671875 C 117.925781 154.671875 116.570312 153.316406 116.570312 151.71875 L 116.570312 138.953125 C 116.570312 137.355469 117.925781 136 119.523438 136 C 121.121094 136 122.476562 137.355469 122.476562 138.953125 L 122.476562 151.71875 C 122.476562 153.394531 121.121094 154.671875 119.523438 154.671875 Z M 119.523438 154.671875 "/><path style=" stroke:none;fill-rule:nonzero;fill:#e6e6e6;fill-opacity:1;" d="M 311.421875 318.082031 L 195.164062 318.082031 C 193.570312 318.082031 192.214844 316.726562 192.214844 315.132812 L 192.214844 269.730469 C 192.214844 258.558594 198.753906 248.347656 208.890625 243.640625 L 234.660156 231.671875 C 235.859375 231.113281 237.375 231.429688 238.171875 232.46875 L 254.609375 253.054688 L 270.886719 232.46875 C 271.683594 231.351562 273.199219 231.03125 274.398438 231.671875 L 300.167969 243.640625 C 300.410156 243.71875 300.648438 243.878906 300.886719 243.957031 C 308.945312 247.949219 313.972656 256.246094 314.054688 265.421875 L 314.292969 315.132812 C 314.292969 315.929688 313.972656 316.648438 313.496094 317.207031 C 312.9375 317.84375 312.21875 318.082031 311.421875 318.082031 Z M 198.117188 312.257812 L 308.46875 312.257812 L 308.230469 265.5 C 308.148438 258.640625 304.320312 252.257812 298.335938 249.304688 C 298.175781 249.222656 297.9375 249.144531 297.777344 248.984375 L 274.078125 237.972656 L 256.921875 259.597656 C 256.363281 260.316406 255.488281 260.714844 254.609375 260.714844 C 253.730469 260.714844 252.855469 260.316406 252.296875 259.597656 L 251.578125 258.71875 L 234.980469 237.972656 L 211.363281 249.066406 C 203.304688 252.816406 198.117188 260.953125 198.117188 269.808594 Z M 198.117188 312.257812 "/><path style=" stroke:none;fill-rule:nonzero;fill:#e6e6e6;fill-opacity:1;" d="M 245.753906 270.527344 C 244.875 270.527344 243.996094 270.128906 243.519531 269.410156 L 220.9375 242.042969 C 219.898438 240.765625 220.058594 238.929688 221.335938 237.894531 C 222.613281 236.855469 224.449219 237.015625 225.484375 238.292969 L 245.753906 262.707031 L 251.578125 255.050781 C 252.535156 253.773438 254.449219 253.53125 255.726562 254.492188 C 257.003906 255.449219 257.242188 257.363281 256.285156 258.640625 L 248.144531 269.25 C 247.507812 270.128906 246.710938 270.449219 245.753906 270.527344 C 245.832031 270.527344 245.832031 270.527344 245.753906 270.527344 Z M 245.753906 270.527344 "/><path style=" stroke:none;fill-rule:nonzero;fill:#e6e6e6;fill-opacity:1;" d="M 263.464844 270.527344 C 262.507812 270.527344 261.710938 270.050781 261.074219 269.332031 L 252.933594 258.640625 C 251.976562 257.363281 252.214844 255.527344 253.492188 254.492188 C 254.769531 253.53125 256.605469 253.773438 257.640625 255.050781 L 263.546875 262.789062 L 283.734375 238.371094 C 284.769531 237.097656 286.605469 236.9375 287.882812 237.972656 C 289.160156 239.011719 289.316406 240.847656 288.28125 242.121094 L 265.78125 269.410156 C 265.140625 270.128906 264.265625 270.527344 263.464844 270.527344 Z M 263.464844 270.527344 "/><path style=" stroke:none;fill-rule:nonzero;fill:#e6e6e6;fill-opacity:1;" d="M 218.625 318.082031 C 217.027344 318.082031 215.671875 316.726562 215.671875 315.132812 L 215.671875 274.675781 C 215.671875 273.082031 217.027344 271.726562 218.625 271.726562 C 220.21875 271.726562 221.574219 273.082031 221.574219 274.675781 L 221.574219 315.132812 C 221.574219 316.808594 220.21875 318.082031 218.625 318.082031 Z M 218.625 318.082031 "/><path style=" stroke:none;fill-rule:nonzero;fill:#e6e6e6;fill-opacity:1;" d="M 287.960938 318.082031 C 286.367188 318.082031 285.007812 316.726562 285.007812 315.132812 L 285.007812 274.675781 C 285.007812 273.082031 286.367188 271.726562 287.960938 271.726562 C 289.558594 271.726562 290.914062 273.082031 290.914062 274.675781 L 290.914062 315.132812 C 290.914062 316.808594 289.558594 318.082031 287.960938 318.082031 Z M 287.960938 318.082031 "/><path style=" stroke:none;fill-rule:nonzero;fill:#e6e6e6;fill-opacity:1;" d="M 254.609375 235.5 C 254.53125 235.5 254.53125 235.5 254.53125 235.5 L 254.449219 235.5 C 239.929688 235.421875 228.199219 223.691406 228.199219 209.167969 L 228.199219 190.097656 C 228.199219 186.746094 229.792969 183.636719 232.585938 181.722656 C 236.734375 178.847656 242.402344 179.488281 245.832031 183.15625 C 247.347656 184.832031 249.503906 185.789062 251.738281 185.789062 L 257.242188 185.789062 C 259.476562 185.789062 261.632812 184.832031 263.148438 183.15625 C 266.5 179.488281 272.242188 178.847656 276.390625 181.722656 C 279.105469 183.636719 280.78125 186.746094 280.78125 190.097656 L 280.78125 209.089844 C 280.859375 223.609375 269.132812 235.339844 254.609375 235.5 Z M 238.410156 185.871094 C 237.613281 185.871094 236.734375 186.109375 236.019531 186.589844 C 234.902344 187.386719 234.183594 188.664062 234.183594 190.097656 L 234.183594 209.167969 C 234.183594 220.417969 243.277344 229.59375 254.53125 229.59375 C 265.78125 229.59375 274.875 220.417969 274.875 209.167969 L 274.875 190.019531 C 274.875 188.664062 274.15625 187.304688 273.042969 186.507812 C 271.285156 185.3125 268.890625 185.550781 267.457031 187.066406 C 264.824219 189.941406 261.074219 191.613281 257.164062 191.613281 L 251.65625 191.613281 C 247.746094 191.613281 243.996094 190.019531 241.363281 187.066406 C 240.726562 186.347656 239.609375 185.871094 238.410156 185.871094 Z M 238.410156 185.871094 "/><path style=" stroke:none;fill-rule:nonzero;fill:#e6e6e6;fill-opacity:1;" d="M 231.230469 205.898438 C 230.511719 205.898438 229.875 205.660156 229.316406 205.179688 L 228.199219 204.222656 C 222.292969 199.273438 219.183594 191.695312 219.898438 184.035156 C 220.457031 178.210938 222.214844 173.183594 225.085938 168.953125 C 231.390625 159.617188 242.003906 156.90625 249.742188 156.269531 C 256.605469 155.710938 264.503906 155.550781 270.964844 158.980469 C 275.515625 161.375 278.148438 164.804688 278.785156 169.113281 C 278.945312 170.230469 279.742188 171.1875 280.859375 171.507812 C 283.972656 172.464844 287.960938 175.179688 289.160156 182.359375 C 290.515625 190.257812 287.402344 198.476562 281.179688 203.824219 L 279.742188 205.179688 C 278.546875 206.296875 276.632812 206.058594 275.59375 204.859375 C 274.476562 203.664062 274.636719 201.75 275.914062 200.710938 L 277.429688 199.433594 C 282.058594 195.445312 284.371094 189.300781 283.414062 183.476562 C 282.535156 178.289062 280.0625 177.570312 279.183594 177.253906 C 275.992188 176.296875 273.519531 173.503906 273.042969 170.152344 C 272.640625 167.757812 271.046875 165.84375 268.253906 164.328125 C 263.066406 161.613281 256.207031 161.695312 250.222656 162.253906 C 243.757812 162.8125 234.980469 164.964844 229.953125 172.386719 C 227.640625 175.738281 226.203125 179.886719 225.804688 184.671875 C 225.246094 190.417969 227.558594 196.082031 232.027344 199.832031 L 233.144531 200.792969 C 234.34375 201.828125 234.582031 203.664062 233.464844 204.941406 C 232.90625 205.5 232.109375 205.898438 231.230469 205.898438 Z M 231.230469 205.898438 "/><path style=" stroke:none;fill-rule:nonzero;fill:#e6e6e6;fill-opacity:1;" d="M 267.933594 243.957031 C 266.339844 243.957031 264.980469 242.601562 264.980469 241.003906 L 264.980469 228.320312 C 264.980469 226.722656 266.339844 225.367188 267.933594 225.367188 C 269.53125 225.367188 270.886719 226.722656 270.886719 228.320312 L 270.886719 241.003906 C 270.886719 242.679688 269.53125 243.957031 267.933594 243.957031 Z M 267.933594 243.957031 "/><path style=" stroke:none;fill-rule:nonzero;fill:#e6e6e6;fill-opacity:1;" d="M 241.203125 244.039062 C 239.609375 244.039062 238.253906 242.679688 238.253906 241.085938 L 238.253906 228.320312 C 238.253906 226.722656 239.609375 225.367188 241.203125 225.367188 C 242.800781 225.367188 244.15625 226.722656 244.15625 228.320312 L 244.15625 241.085938 C 244.15625 242.679688 242.800781 244.039062 241.203125 244.039062 Z M 241.203125 244.039062 "/></g></svg>