<svg xmlns="http://www.w3.org/2000/svg" xmlns:xlink="http://www.w3.org/1999/xlink" width="512" zoomAndPan="magnify" viewBox="0 0 384 391.91998" height="512" preserveAspectRatio="xMidYMid meet" version="1.2"><defs><clipPath id="3c0d2addd3"><path d="M 0.0390625 0 L 383.960938 0 L 383.960938 383.921875 L 0.0390625 383.921875 Z M 0.0390625 0 "/></clipPath></defs><g id="59db3364cd"><g clip-rule="nonzero" clip-path="url(#3c0d2addd3)"><path style=" stroke:none;fill-rule:nonzero;fill:#00a084;fill-opacity:1;" d="M 383.960938 191.960938 C 383.960938 195.101562 383.882812 198.242188 383.730469 201.378906 C 383.574219 204.519531 383.34375 207.648438 383.035156 210.777344 C 382.726562 213.902344 382.34375 217.019531 381.882812 220.128906 C 381.421875 223.234375 380.886719 226.328125 380.273438 229.410156 C 379.660156 232.492188 378.972656 235.554688 378.207031 238.601562 C 377.445312 241.652344 376.605469 244.675781 375.695312 247.683594 C 374.78125 250.691406 373.796875 253.671875 372.738281 256.628906 C 371.679688 259.589844 370.550781 262.519531 369.347656 265.421875 C 368.144531 268.324219 366.875 271.195312 365.53125 274.035156 C 364.1875 276.875 362.773438 279.679688 361.292969 282.449219 C 359.8125 285.222656 358.265625 287.953125 356.648438 290.648438 C 355.035156 293.34375 353.355469 295.996094 351.609375 298.609375 C 349.863281 301.21875 348.054688 303.789062 346.183594 306.3125 C 344.3125 308.835938 342.378906 311.3125 340.386719 313.738281 C 338.394531 316.167969 336.34375 318.546875 334.234375 320.875 C 332.125 323.203125 329.957031 325.476562 327.738281 327.699219 C 325.515625 329.917969 323.242188 332.085938 320.914062 334.195312 C 318.585938 336.304688 316.207031 338.355469 313.777344 340.347656 C 311.351562 342.339844 308.875 344.273438 306.351562 346.144531 C 303.828125 348.015625 301.261719 349.824219 298.648438 351.570312 C 296.035156 353.316406 293.382812 354.996094 290.6875 356.609375 C 287.992188 358.226562 285.261719 359.773438 282.488281 361.253906 C 279.71875 362.734375 276.914062 364.148438 274.074219 365.492188 C 271.234375 366.835938 268.363281 368.105469 265.460938 369.308594 C 262.558594 370.511719 259.628906 371.640625 256.667969 372.699219 C 253.710938 373.757812 250.730469 374.742188 247.722656 375.65625 C 244.71875 376.566406 241.691406 377.40625 238.644531 378.167969 C 235.59375 378.933594 232.53125 379.621094 229.449219 380.234375 C 226.367188 380.847656 223.273438 381.382812 220.167969 381.84375 C 217.058594 382.304688 213.941406 382.6875 210.816406 382.996094 C 207.6875 383.304688 204.558594 383.535156 201.417969 383.691406 C 198.28125 383.84375 195.140625 383.921875 192 383.921875 C 188.859375 383.921875 185.71875 383.84375 182.582031 383.691406 C 179.441406 383.535156 176.3125 383.304688 173.183594 382.996094 C 170.058594 382.6875 166.941406 382.304688 163.832031 381.84375 C 160.726562 381.382812 157.632812 380.847656 154.550781 380.234375 C 151.46875 379.621094 148.40625 378.933594 145.355469 378.167969 C 142.308594 377.40625 139.28125 376.566406 136.277344 375.65625 C 133.269531 374.742188 130.289062 373.757812 127.332031 372.699219 C 124.371094 371.640625 121.441406 370.511719 118.539062 369.308594 C 115.636719 368.105469 112.765625 366.835938 109.925781 365.492188 C 107.085938 364.148438 104.28125 362.734375 101.511719 361.253906 C 98.738281 359.773438 96.007812 358.226562 93.3125 356.609375 C 90.617188 354.996094 87.964844 353.316406 85.351562 351.570312 C 82.738281 349.824219 80.171875 348.015625 77.648438 346.144531 C 75.125 344.273438 72.648438 342.339844 70.222656 340.347656 C 67.792969 338.355469 65.414062 336.304688 63.085938 334.195312 C 60.757812 332.085938 58.484375 329.917969 56.261719 327.699219 C 54.042969 325.476562 51.875 323.203125 49.765625 320.875 C 47.65625 318.546875 45.605469 316.167969 43.613281 313.738281 C 41.621094 311.3125 39.6875 308.835938 37.816406 306.3125 C 35.945312 303.789062 34.136719 301.21875 32.390625 298.609375 C 30.644531 295.996094 28.964844 293.34375 27.351562 290.648438 C 25.734375 287.953125 24.1875 285.222656 22.707031 282.449219 C 21.226562 279.679688 19.8125 276.875 18.46875 274.035156 C 17.125 271.195312 15.855469 268.324219 14.652344 265.421875 C 13.449219 262.519531 12.320312 259.589844 11.261719 256.628906 C 10.203125 253.671875 9.21875 250.691406 8.304688 247.683594 C 7.394531 244.679688 6.554688 241.652344 5.792969 238.601562 C 5.027344 235.554688 4.339844 232.492188 3.726562 229.410156 C 3.113281 226.328125 2.578125 223.234375 2.117188 220.128906 C 1.65625 217.019531 1.269531 213.902344 0.964844 210.777344 C 0.65625 207.648438 0.425781 204.519531 0.269531 201.378906 C 0.117188 198.242188 0.0390625 195.101562 0.0390625 191.960938 C 0.0390625 188.820312 0.117188 185.679688 0.269531 182.542969 C 0.425781 179.402344 0.65625 176.273438 0.964844 173.144531 C 1.269531 170.019531 1.65625 166.902344 2.117188 163.792969 C 2.578125 160.6875 3.113281 157.59375 3.726562 154.511719 C 4.339844 151.429688 5.027344 148.367188 5.792969 145.316406 C 6.554688 142.269531 7.394531 139.242188 8.304688 136.238281 C 9.21875 133.230469 10.203125 130.25 11.261719 127.292969 C 12.320312 124.332031 13.449219 121.402344 14.652344 118.5 C 15.855469 115.597656 17.125 112.726562 18.46875 109.886719 C 19.8125 107.046875 21.226562 104.242188 22.707031 101.472656 C 24.1875 98.699219 25.734375 95.96875 27.351562 93.273438 C 28.964844 90.578125 30.644531 87.925781 32.390625 85.3125 C 34.136719 82.699219 35.945312 80.132812 37.816406 77.609375 C 39.6875 75.085938 41.621094 72.609375 43.613281 70.183594 C 45.605469 67.753906 47.65625 65.375 49.765625 63.046875 C 51.875 60.71875 54.042969 58.445312 56.261719 56.222656 C 58.484375 54.003906 60.757812 51.835938 63.085938 49.726562 C 65.414062 47.617188 67.792969 45.566406 70.222656 43.574219 C 72.648438 41.582031 75.125 39.648438 77.648438 37.777344 C 80.171875 35.90625 82.738281 34.097656 85.351562 32.351562 C 87.964844 30.605469 90.617188 28.925781 93.3125 27.308594 C 96.007812 25.695312 98.738281 24.148438 101.511719 22.667969 C 104.28125 21.1875 107.085938 19.773438 109.925781 18.429688 C 112.765625 17.085938 115.636719 15.8125 118.539062 14.613281 C 121.441406 13.410156 124.371094 12.28125 127.332031 11.222656 C 130.289062 10.164062 133.269531 9.175781 136.277344 8.265625 C 139.28125 7.355469 142.308594 6.515625 145.355469 5.753906 C 148.40625 4.988281 151.46875 4.300781 154.550781 3.6875 C 157.632812 3.074219 160.726562 2.539062 163.832031 2.078125 C 166.941406 1.617188 170.058594 1.230469 173.183594 0.925781 C 176.3125 0.617188 179.441406 0.386719 182.582031 0.230469 C 185.71875 0.078125 188.859375 0 192 0 C 195.140625 0 198.28125 0.078125 201.417969 0.230469 C 204.558594 0.386719 207.6875 0.617188 210.816406 0.925781 C 213.941406 1.230469 217.058594 1.617188 220.167969 2.078125 C 223.273438 2.539062 226.367188 3.074219 229.449219 3.6875 C 232.53125 4.300781 235.59375 4.988281 238.644531 5.753906 C 241.691406 6.515625 244.71875 7.355469 247.722656 8.265625 C 250.730469 9.175781 253.710938 10.164062 256.667969 11.222656 C 259.628906 12.28125 262.558594 13.410156 265.460938 14.613281 C 268.363281 15.8125 271.234375 17.085938 274.074219 18.429688 C 276.914062 19.773438 279.71875 21.1875 282.488281 22.667969 C 285.261719 24.148438 287.992188 25.695312 290.6875 27.308594 C 293.382812 28.925781 296.035156 30.605469 298.648438 32.351562 C 301.261719 34.097656 303.828125 35.90625 306.351562 37.777344 C 308.875 39.648438 311.351562 41.582031 313.777344 43.574219 C 316.207031 45.566406 318.585938 47.617188 320.914062 49.726562 C 323.242188 51.835938 325.515625 54.003906 327.738281 56.222656 C 329.957031 58.445312 332.125 60.71875 334.234375 63.046875 C 336.34375 65.375 338.394531 67.753906 340.386719 70.183594 C 342.378906 72.609375 344.3125 75.085938 346.183594 77.609375 C 348.054688 80.132812 349.863281 82.699219 351.609375 85.3125 C 353.355469 87.925781 355.035156 90.578125 356.648438 93.273438 C 358.265625 95.96875 359.8125 98.699219 361.292969 101.472656 C 362.773438 104.242188 364.1875 107.046875 365.53125 109.886719 C 366.875 112.726562 368.144531 115.597656 369.347656 118.5 C 370.550781 121.402344 371.679688 124.332031 372.738281 127.292969 C 373.796875 130.25 374.78125 133.230469 375.695312 136.238281 C 376.605469 139.242188 377.445312 142.269531 378.207031 145.316406 C 378.972656 148.367188 379.660156 151.429688 380.273438 154.511719 C 380.886719 157.59375 381.421875 160.6875 381.882812 163.792969 C 382.34375 166.902344 382.726562 170.019531 383.035156 173.144531 C 383.34375 176.273438 383.574219 179.402344 383.730469 182.542969 C 383.882812 185.679688 383.960938 188.820312 383.960938 191.960938 Z M 383.960938 191.960938 "/></g><path style=" stroke:none;fill-rule:nonzero;fill:#ffffff;fill-opacity:1;" d="M 292.996094 177.640625 L 185.195312 177.640625 C 184.789062 177.640625 184.398438 177.5625 184.023438 177.40625 C 183.644531 177.25 183.3125 177.027344 183.023438 176.742188 C 182.738281 176.453125 182.515625 176.121094 182.359375 175.746094 C 182.203125 175.367188 182.125 174.976562 182.125 174.570312 C 182.125 174.160156 182.203125 173.769531 182.359375 173.394531 C 182.515625 173.015625 182.738281 172.683594 183.023438 172.398438 C 183.3125 172.109375 183.644531 171.886719 184.023438 171.730469 C 184.398438 171.574219 184.789062 171.496094 185.195312 171.496094 L 292.996094 171.496094 C 293.328125 171.496094 293.660156 171.464844 293.988281 171.398438 C 294.320312 171.332031 294.636719 171.238281 294.945312 171.109375 C 295.257812 170.980469 295.550781 170.824219 295.828125 170.636719 C 296.109375 170.449219 296.367188 170.238281 296.601562 170.003906 C 296.839844 169.765625 297.050781 169.507812 297.238281 169.230469 C 297.421875 168.949219 297.582031 168.65625 297.710938 168.347656 C 297.839844 168.039062 297.933594 167.71875 298 167.390625 C 298.066406 167.0625 298.101562 166.730469 298.101562 166.394531 L 298.101562 93.140625 C 298.101562 92.804688 298.066406 92.472656 298 92.144531 C 297.933594 91.816406 297.839844 91.496094 297.710938 91.1875 C 297.582031 90.878906 297.421875 90.582031 297.238281 90.304688 C 297.050781 90.027344 296.839844 89.769531 296.601562 89.53125 C 296.367188 89.296875 296.109375 89.085938 295.828125 88.898438 C 295.550781 88.710938 295.257812 88.554688 294.945312 88.425781 C 294.636719 88.296875 294.320312 88.203125 293.988281 88.136719 C 293.660156 88.070312 293.328125 88.039062 292.996094 88.035156 L 179.332031 88.035156 C 178.996094 88.039062 178.664062 88.070312 178.335938 88.136719 C 178.007812 88.203125 177.6875 88.296875 177.378906 88.425781 C 177.070312 88.554688 176.773438 88.710938 176.496094 88.898438 C 176.21875 89.085938 175.960938 89.296875 175.722656 89.53125 C 175.484375 89.769531 175.273438 90.027344 175.085938 90.304688 C 174.902344 90.582031 174.742188 90.878906 174.613281 91.1875 C 174.488281 91.496094 174.390625 91.816406 174.324219 92.144531 C 174.257812 92.472656 174.226562 92.804688 174.222656 93.140625 L 174.222656 145.953125 C 174.222656 146.359375 174.148438 146.75 173.992188 147.128906 C 173.835938 147.503906 173.613281 147.835938 173.324219 148.125 C 173.035156 148.410156 172.703125 148.632812 172.328125 148.789062 C 171.953125 148.945312 171.558594 149.023438 171.152344 149.023438 C 170.746094 149.023438 170.355469 148.945312 169.976562 148.789062 C 169.601562 148.632812 169.269531 148.410156 168.980469 148.125 C 168.691406 147.835938 168.472656 147.503906 168.316406 147.128906 C 168.160156 146.75 168.082031 146.359375 168.082031 145.953125 L 168.082031 93.140625 C 168.082031 92.402344 168.15625 91.671875 168.300781 90.945312 C 168.445312 90.222656 168.660156 89.519531 168.941406 88.835938 C 169.226562 88.15625 169.570312 87.507812 169.980469 86.894531 C 170.394531 86.28125 170.859375 85.714844 171.382812 85.191406 C 171.902344 84.667969 172.472656 84.203125 173.085938 83.792969 C 173.699219 83.382812 174.347656 83.035156 175.027344 82.753906 C 175.710938 82.46875 176.414062 82.257812 177.136719 82.113281 C 177.859375 81.96875 178.59375 81.894531 179.332031 81.894531 L 292.996094 81.894531 C 293.734375 81.894531 294.464844 81.96875 295.1875 82.113281 C 295.910156 82.257812 296.613281 82.46875 297.296875 82.753906 C 297.976562 83.035156 298.625 83.382812 299.238281 83.792969 C 299.855469 84.203125 300.421875 84.667969 300.945312 85.191406 C 301.464844 85.714844 301.933594 86.28125 302.34375 86.894531 C 302.753906 87.507812 303.101562 88.15625 303.382812 88.835938 C 303.664062 89.519531 303.878906 90.222656 304.023438 90.945312 C 304.167969 91.671875 304.242188 92.402344 304.242188 93.140625 L 304.242188 166.394531 C 304.242188 167.132812 304.167969 167.863281 304.023438 168.589844 C 303.878906 169.3125 303.664062 170.015625 303.382812 170.695312 C 303.101562 171.378906 302.753906 172.027344 302.34375 172.640625 C 301.933594 173.253906 301.464844 173.820312 300.945312 174.34375 C 300.421875 174.867188 299.855469 175.332031 299.238281 175.742188 C 298.625 176.152344 297.976562 176.5 297.296875 176.78125 C 296.613281 177.0625 295.910156 177.277344 295.1875 177.421875 C 294.464844 177.566406 293.734375 177.640625 292.996094 177.640625 Z M 292.996094 177.640625 "/><path style=" stroke:none;fill-rule:nonzero;fill:#ffffff;fill-opacity:1;" d="M 139.144531 207.011719 L 111.433594 207.011719 C 110.527344 207.011719 109.628906 206.921875 108.738281 206.746094 C 107.847656 206.566406 106.984375 206.304688 106.144531 205.957031 C 105.304688 205.609375 104.511719 205.183594 103.753906 204.679688 C 103 204.175781 102.300781 203.605469 101.660156 202.960938 C 101.019531 202.320312 100.445312 201.621094 99.941406 200.867188 C 99.4375 200.113281 99.011719 199.316406 98.664062 198.476562 C 98.316406 197.640625 98.054688 196.777344 97.878906 195.886719 C 97.703125 194.996094 97.613281 194.097656 97.613281 193.1875 L 97.613281 149.628906 C 97.613281 149.222656 97.691406 148.832031 97.847656 148.453125 C 98.003906 148.078125 98.222656 147.746094 98.511719 147.457031 C 98.800781 147.167969 99.132812 146.949219 99.507812 146.792969 C 99.886719 146.636719 100.277344 146.558594 100.683594 146.558594 C 101.089844 146.558594 101.484375 146.636719 101.859375 146.792969 C 102.234375 146.949219 102.566406 147.167969 102.855469 147.457031 C 103.144531 147.746094 103.367188 148.078125 103.523438 148.453125 C 103.675781 148.832031 103.753906 149.222656 103.753906 149.628906 L 103.753906 193.1875 C 103.753906 193.695312 103.804688 194.191406 103.902344 194.6875 C 104 195.183594 104.148438 195.660156 104.339844 196.128906 C 104.53125 196.59375 104.769531 197.035156 105.050781 197.457031 C 105.328125 197.875 105.648438 198.261719 106.003906 198.617188 C 106.359375 198.976562 106.75 199.292969 107.167969 199.574219 C 107.585938 199.855469 108.03125 200.089844 108.496094 200.285156 C 108.960938 200.476562 109.441406 200.621094 109.9375 200.71875 C 110.429688 200.820312 110.929688 200.867188 111.433594 200.867188 L 139.144531 200.867188 C 139.648438 200.867188 140.148438 200.820312 140.644531 200.71875 C 141.136719 200.621094 141.617188 200.476562 142.082031 200.285156 C 142.550781 200.089844 142.992188 199.855469 143.410156 199.574219 C 143.832031 199.292969 144.21875 198.976562 144.574219 198.617188 C 144.929688 198.261719 145.25 197.875 145.53125 197.457031 C 145.808594 197.035156 146.046875 196.59375 146.238281 196.128906 C 146.433594 195.660156 146.578125 195.183594 146.675781 194.6875 C 146.773438 194.191406 146.824219 193.695312 146.824219 193.1875 L 146.824219 149.628906 C 146.824219 149.222656 146.902344 148.832031 147.058594 148.453125 C 147.214844 148.078125 147.433594 147.746094 147.722656 147.457031 C 148.011719 147.167969 148.34375 146.949219 148.71875 146.792969 C 149.097656 146.636719 149.488281 146.558594 149.894531 146.558594 C 150.300781 146.558594 150.695312 146.636719 151.070312 146.792969 C 151.445312 146.949219 151.777344 147.167969 152.066406 147.457031 C 152.355469 147.746094 152.578125 148.078125 152.734375 148.453125 C 152.890625 148.832031 152.964844 149.222656 152.964844 149.628906 L 152.964844 193.1875 C 152.964844 194.097656 152.878906 194.996094 152.699219 195.886719 C 152.523438 196.777344 152.261719 197.640625 151.914062 198.476562 C 151.566406 199.316406 151.140625 200.113281 150.636719 200.867188 C 150.132812 201.621094 149.558594 202.320312 148.917969 202.960938 C 148.277344 203.605469 147.578125 204.175781 146.824219 204.679688 C 146.070312 205.183594 145.273438 205.609375 144.433594 205.957031 C 143.597656 206.304688 142.730469 206.566406 141.84375 206.746094 C 140.953125 206.921875 140.054688 207.011719 139.144531 207.011719 Z M 139.144531 207.011719 "/><path style=" stroke:none;fill-rule:nonzero;fill:#ffffff;fill-opacity:1;" d="M 100.6875 189.878906 L 92.074219 189.878906 C 91.265625 189.878906 90.464844 189.800781 89.671875 189.640625 C 88.878906 189.480469 88.109375 189.25 87.363281 188.9375 C 86.617188 188.628906 85.90625 188.25 85.234375 187.800781 C 84.5625 187.351562 83.941406 186.839844 83.367188 186.269531 C 82.796875 185.695312 82.285156 185.074219 81.835938 184.402344 C 81.386719 183.730469 81.007812 183.019531 80.699219 182.273438 C 80.386719 181.527344 80.15625 180.757812 79.996094 179.964844 C 79.835938 179.171875 79.757812 178.371094 79.757812 177.5625 L 79.757812 161.269531 C 79.757812 157.792969 80.183594 154.371094 81.035156 151 C 81.886719 147.628906 83.132812 144.414062 84.777344 141.351562 L 92.390625 127.210938 C 92.875 126.308594 93.421875 125.441406 94.023438 124.613281 C 94.625 123.785156 95.28125 122.996094 95.988281 122.257812 C 96.699219 121.515625 97.453125 120.824219 98.253906 120.1875 C 99.054688 119.546875 99.898438 118.964844 100.777344 118.4375 C 101.65625 117.914062 102.570312 117.449219 103.511719 117.046875 C 104.453125 116.644531 105.421875 116.304688 106.410156 116.03125 C 107.398438 115.761719 108.398438 115.554688 109.417969 115.417969 C 110.433594 115.28125 111.453125 115.214844 112.476562 115.214844 L 138.96875 115.214844 C 140.902344 115.210938 142.804688 115.449219 144.679688 115.929688 C 146.550781 116.410156 148.332031 117.121094 150.023438 118.058594 C 151.714844 118.996094 153.261719 120.132812 154.664062 121.464844 C 156.0625 122.796875 157.273438 124.285156 158.296875 125.925781 L 159.449219 127.746094 C 162.644531 132.847656 166.441406 137.453125 170.835938 141.566406 C 175.230469 145.679688 180.078125 149.167969 185.378906 152.019531 C 185.816406 152.253906 186.238281 152.511719 186.652344 152.789062 C 187.0625 153.066406 187.460938 153.363281 187.84375 153.679688 C 188.222656 153.996094 188.589844 154.332031 188.9375 154.683594 C 189.285156 155.039062 189.617188 155.410156 189.925781 155.796875 C 190.238281 156.183594 190.527344 156.585938 190.800781 157 C 191.070312 157.417969 191.320312 157.84375 191.546875 158.285156 C 191.773438 158.726562 191.980469 159.179688 192.160156 159.640625 C 192.34375 160.101562 192.503906 160.570312 192.636719 161.050781 C 192.773438 161.527344 192.882812 162.011719 192.96875 162.5 C 193.054688 162.988281 193.117188 163.480469 193.152344 163.976562 C 193.191406 164.46875 193.203125 164.964844 193.1875 165.460938 C 193.175781 165.957031 193.136719 166.453125 193.074219 166.945312 C 193.011719 167.4375 192.925781 167.925781 192.8125 168.410156 C 192.703125 168.890625 192.566406 169.371094 192.40625 169.839844 C 192.246094 170.308594 192.0625 170.769531 191.855469 171.222656 C 191.652344 171.671875 191.421875 172.113281 191.171875 172.542969 C 190.921875 172.96875 190.652344 173.386719 190.359375 173.785156 C 190.066406 174.1875 189.753906 174.574219 189.425781 174.941406 C 189.09375 175.3125 188.746094 175.664062 188.378906 176 C 188.011719 176.335938 187.628906 176.652344 187.230469 176.949219 C 186.832031 177.242188 186.421875 177.519531 185.996094 177.773438 C 185.570312 178.03125 185.132812 178.261719 184.683594 178.472656 C 184.234375 178.683594 183.773438 178.871094 183.304688 179.039062 C 182.835938 179.203125 182.363281 179.34375 181.878906 179.460938 C 181.398438 179.578125 180.910156 179.667969 180.417969 179.738281 C 179.925781 179.804688 179.433594 179.847656 178.9375 179.867188 C 178.441406 179.886719 177.945312 179.878906 177.449219 179.847656 C 176.953125 179.816406 176.460938 179.757812 175.972656 179.679688 C 175.484375 179.597656 175 179.492188 174.519531 179.363281 C 174.039062 179.230469 173.570312 179.078125 173.105469 178.902344 C 172.640625 178.722656 172.1875 178.523438 171.746094 178.300781 C 171.300781 178.078125 170.871094 177.832031 170.449219 177.566406 L 148.261719 163.535156 C 147.90625 163.320312 147.609375 163.046875 147.367188 162.714844 C 147.121094 162.382812 146.953125 162.011719 146.859375 161.613281 C 146.765625 161.210938 146.75 160.804688 146.820312 160.398438 C 146.886719 159.992188 147.03125 159.613281 147.253906 159.265625 C 147.472656 158.914062 147.753906 158.625 148.089844 158.386719 C 148.429688 158.152344 148.800781 157.988281 149.203125 157.902344 C 149.605469 157.816406 150.011719 157.8125 150.417969 157.886719 C 150.824219 157.964844 151.199219 158.117188 151.542969 158.34375 L 173.726562 172.378906 C 174.21875 172.667969 174.730469 172.902344 175.269531 173.089844 C 175.808594 173.273438 176.359375 173.40625 176.921875 173.480469 C 177.488281 173.558594 178.050781 173.578125 178.621094 173.542969 C 179.1875 173.507812 179.746094 173.417969 180.296875 173.273438 C 180.847656 173.128906 181.378906 172.933594 181.890625 172.683594 C 182.402344 172.433594 182.882812 172.136719 183.335938 171.792969 C 183.789062 171.449219 184.203125 171.0625 184.582031 170.636719 C 184.957031 170.210938 185.289062 169.75 185.578125 169.257812 C 185.863281 168.769531 186.097656 168.253906 186.285156 167.714844 C 186.46875 167.175781 186.601562 166.625 186.675781 166.0625 C 186.753906 165.5 186.773438 164.933594 186.742188 164.363281 C 186.707031 163.796875 186.617188 163.238281 186.472656 162.6875 C 186.324219 162.136719 186.128906 161.605469 185.878906 161.09375 C 185.628906 160.582031 185.332031 160.101562 184.988281 159.648438 C 184.644531 159.195312 184.257812 158.78125 183.832031 158.402344 C 183.40625 158.027344 182.949219 157.695312 182.457031 157.40625 C 176.6875 154.300781 171.414062 150.507812 166.628906 146.027344 C 161.847656 141.550781 157.714844 136.535156 154.234375 130.988281 L 153.082031 129.164062 C 152.335938 127.964844 151.449219 126.878906 150.425781 125.902344 C 149.402344 124.929688 148.273438 124.101562 147.035156 123.417969 C 145.800781 122.734375 144.496094 122.21875 143.128906 121.867188 C 141.761719 121.515625 140.371094 121.339844 138.957031 121.347656 L 112.464844 121.347656 C 110.960938 121.34375 109.484375 121.546875 108.03125 121.945312 C 106.582031 122.34375 105.210938 122.929688 103.917969 123.703125 C 102.625 124.472656 101.460938 125.402344 100.417969 126.492188 C 99.378906 127.578125 98.503906 128.785156 97.789062 130.109375 L 90.175781 144.253906 C 88.769531 146.867188 87.707031 149.613281 86.980469 152.492188 C 86.253906 155.367188 85.890625 158.292969 85.886719 161.257812 L 85.886719 177.5625 C 85.886719 177.96875 85.929688 178.371094 86.007812 178.769531 C 86.085938 179.164062 86.203125 179.550781 86.359375 179.925781 C 86.515625 180.300781 86.707031 180.65625 86.929688 180.992188 C 87.15625 181.328125 87.410156 181.640625 87.699219 181.925781 C 87.984375 182.214844 88.296875 182.46875 88.632812 182.695312 C 88.96875 182.917969 89.324219 183.109375 89.699219 183.265625 C 90.074219 183.421875 90.460938 183.539062 90.859375 183.617188 C 91.253906 183.695312 91.65625 183.738281 92.0625 183.738281 L 100.675781 183.738281 C 101.082031 183.738281 101.476562 183.816406 101.851562 183.972656 C 102.226562 184.125 102.558594 184.347656 102.847656 184.636719 C 103.136719 184.925781 103.359375 185.257812 103.515625 185.632812 C 103.671875 186.007812 103.746094 186.402344 103.746094 186.808594 C 103.746094 187.214844 103.671875 187.609375 103.515625 187.984375 C 103.359375 188.359375 103.136719 188.691406 102.847656 188.980469 C 102.558594 189.269531 102.226562 189.492188 101.851562 189.644531 C 101.476562 189.800781 101.082031 189.878906 100.675781 189.878906 Z M 100.6875 189.878906 "/><path style=" stroke:none;fill-rule:nonzero;fill:#ffffff;fill-opacity:1;" d="M 125.289062 112.667969 C 124.707031 112.667969 124.125 112.640625 123.542969 112.585938 C 122.960938 112.527344 122.386719 112.441406 121.8125 112.328125 C 121.238281 112.214844 120.675781 112.074219 120.117188 111.902344 C 119.558594 111.734375 119.007812 111.539062 118.46875 111.3125 C 117.929688 111.089844 117.402344 110.84375 116.886719 110.566406 C 116.371094 110.292969 115.871094 109.992188 115.386719 109.667969 C 114.902344 109.34375 114.433594 108.996094 113.980469 108.625 C 113.53125 108.257812 113.097656 107.863281 112.683594 107.453125 C 112.273438 107.039062 111.882812 106.609375 111.511719 106.15625 C 111.140625 105.707031 110.792969 105.238281 110.46875 104.753906 C 110.144531 104.265625 109.84375 103.765625 109.566406 103.253906 C 109.292969 102.738281 109.042969 102.210938 108.820312 101.671875 C 108.597656 101.132812 108.398438 100.582031 108.230469 100.023438 C 108.058594 99.464844 107.917969 98.902344 107.804688 98.328125 C 107.691406 97.757812 107.605469 97.179688 107.546875 96.597656 C 107.488281 96.019531 107.460938 95.433594 107.460938 94.851562 C 107.460938 94.269531 107.488281 93.6875 107.546875 93.105469 C 107.601562 92.523438 107.6875 91.945312 107.800781 91.375 C 107.914062 90.800781 108.054688 90.234375 108.226562 89.675781 C 108.394531 89.117188 108.589844 88.570312 108.8125 88.03125 C 109.039062 87.492188 109.285156 86.964844 109.5625 86.449219 C 109.835938 85.933594 110.136719 85.433594 110.460938 84.949219 C 110.785156 84.460938 111.128906 83.996094 111.5 83.542969 C 111.871094 83.089844 112.261719 82.660156 112.675781 82.246094 C 113.085938 81.832031 113.519531 81.441406 113.96875 81.070312 C 114.421875 80.699219 114.890625 80.351562 115.375 80.027344 C 115.859375 79.703125 116.359375 79.402344 116.875 79.128906 C 117.386719 78.851562 117.914062 78.601562 118.453125 78.378906 C 118.992188 78.15625 119.542969 77.960938 120.101562 77.789062 C 120.660156 77.621094 121.226562 77.476562 121.796875 77.363281 C 122.371094 77.25 122.945312 77.164062 123.527344 77.105469 C 124.109375 77.046875 124.691406 77.019531 125.273438 77.019531 C 125.859375 77.019531 126.441406 77.046875 127.019531 77.101562 C 127.601562 77.160156 128.179688 77.246094 128.75 77.359375 C 129.324219 77.472656 129.890625 77.613281 130.449219 77.78125 C 131.007812 77.953125 131.554688 78.148438 132.097656 78.371094 C 132.636719 78.59375 133.164062 78.84375 133.675781 79.117188 C 134.191406 79.390625 134.691406 79.691406 135.179688 80.015625 C 135.664062 80.339844 136.132812 80.6875 136.585938 81.054688 C 137.035156 81.425781 137.46875 81.816406 137.882812 82.230469 C 138.292969 82.640625 138.6875 83.074219 139.054688 83.523438 C 139.425781 83.976562 139.773438 84.445312 140.097656 84.929688 C 140.425781 85.414062 140.722656 85.914062 141 86.429688 C 141.277344 86.941406 141.523438 87.46875 141.75 88.007812 C 141.972656 88.546875 142.167969 89.097656 142.339844 89.65625 C 142.507812 90.214844 142.652344 90.78125 142.765625 91.351562 C 142.878906 91.925781 142.964844 92.5 143.023438 93.082031 C 143.082031 93.664062 143.109375 94.246094 143.113281 94.828125 C 143.109375 95.414062 143.082031 95.996094 143.023438 96.574219 C 142.96875 97.15625 142.882812 97.734375 142.769531 98.304688 C 142.65625 98.878906 142.511719 99.445312 142.34375 100.003906 C 142.175781 100.5625 141.976562 101.113281 141.753906 101.652344 C 141.53125 102.191406 141.28125 102.71875 141.007812 103.234375 C 140.730469 103.746094 140.433594 104.246094 140.109375 104.734375 C 139.785156 105.21875 139.4375 105.6875 139.066406 106.140625 C 138.695312 106.589844 138.304688 107.023438 137.890625 107.4375 C 137.480469 107.847656 137.046875 108.242188 136.597656 108.613281 C 136.144531 108.984375 135.675781 109.332031 135.191406 109.65625 C 134.707031 109.980469 134.207031 110.28125 133.691406 110.554688 C 133.175781 110.832031 132.648438 111.082031 132.109375 111.304688 C 131.570312 111.527344 131.023438 111.726562 130.464844 111.894531 C 129.90625 112.066406 129.339844 112.207031 128.765625 112.324219 C 128.195312 112.4375 127.617188 112.523438 127.035156 112.582031 C 126.457031 112.640625 125.875 112.667969 125.289062 112.667969 Z M 125.289062 83.164062 C 124.523438 83.164062 123.761719 83.238281 123.007812 83.390625 C 122.257812 83.539062 121.527344 83.761719 120.816406 84.054688 C 120.109375 84.347656 119.433594 84.707031 118.796875 85.132812 C 118.15625 85.558594 117.566406 86.042969 117.023438 86.585938 C 116.480469 87.128906 115.996094 87.71875 115.570312 88.359375 C 115.144531 88.996094 114.785156 89.667969 114.492188 90.378906 C 114.199219 91.085938 113.976562 91.820312 113.828125 92.570312 C 113.675781 93.324219 113.601562 94.085938 113.601562 94.851562 C 113.601562 95.617188 113.679688 96.378906 113.828125 97.132812 C 113.980469 97.882812 114.199219 98.613281 114.496094 99.324219 C 114.789062 100.03125 115.148438 100.707031 115.574219 101.34375 C 116.003906 101.980469 116.488281 102.570312 117.03125 103.113281 C 117.574219 103.65625 118.164062 104.140625 118.800781 104.566406 C 119.441406 104.992188 120.113281 105.351562 120.824219 105.644531 C 121.535156 105.9375 122.265625 106.160156 123.015625 106.308594 C 123.769531 106.457031 124.53125 106.53125 125.296875 106.53125 C 126.066406 106.53125 126.824219 106.453125 127.578125 106.304688 C 128.328125 106.152344 129.058594 105.929688 129.769531 105.636719 C 130.476562 105.339844 131.152344 104.980469 131.789062 104.554688 C 132.425781 104.125 133.015625 103.640625 133.558594 103.097656 C 134.101562 102.554688 134.582031 101.964844 135.007812 101.324219 C 135.433594 100.6875 135.792969 100.011719 136.085938 99.300781 C 136.378906 98.59375 136.597656 97.863281 136.746094 97.109375 C 136.894531 96.355469 136.96875 95.597656 136.96875 94.828125 C 136.964844 94.0625 136.890625 93.304688 136.738281 92.554688 C 136.589844 91.800781 136.367188 91.074219 136.070312 90.367188 C 135.777344 89.660156 135.417969 88.988281 134.992188 88.351562 C 134.5625 87.714844 134.078125 87.125 133.539062 86.585938 C 132.996094 86.042969 132.40625 85.558594 131.769531 85.136719 C 131.132812 84.710938 130.460938 84.351562 129.753906 84.058594 C 129.046875 83.761719 128.316406 83.542969 127.566406 83.390625 C 126.8125 83.242188 126.054688 83.167969 125.289062 83.164062 Z M 125.289062 83.164062 "/><path style=" stroke:none;fill-rule:nonzero;fill:#ffffff;fill-opacity:1;" d="M 183.910156 157.792969 C 183.289062 157.792969 182.722656 157.617188 182.203125 157.273438 C 181.6875 156.929688 181.3125 156.46875 181.074219 155.894531 C 180.835938 155.320312 180.777344 154.730469 180.898438 154.121094 C 181.023438 153.511719 181.300781 152.988281 181.742188 152.546875 L 213.632812 120.65625 C 213.921875 120.367188 214.253906 120.144531 214.628906 119.988281 C 215.007812 119.832031 215.398438 119.753906 215.804688 119.753906 C 216.214844 119.753906 216.605469 119.832031 216.980469 119.988281 C 217.359375 120.144531 217.691406 120.363281 217.976562 120.652344 C 218.265625 120.941406 218.488281 121.273438 218.644531 121.648438 C 218.800781 122.027344 218.878906 122.417969 218.878906 122.824219 C 218.878906 123.230469 218.800781 123.625 218.644531 124 C 218.488281 124.375 218.269531 124.710938 217.980469 124.996094 L 186.082031 156.894531 C 185.484375 157.492188 184.757812 157.792969 183.910156 157.792969 Z M 183.910156 157.792969 "/><path style=" stroke:none;fill-rule:nonzero;fill:#ffffff;fill-opacity:1;" d="M 231.277344 161.4375 C 230.871094 161.4375 230.480469 161.359375 230.105469 161.207031 C 229.726562 161.050781 229.394531 160.828125 229.105469 160.539062 C 228.820312 160.25 228.597656 159.917969 228.441406 159.542969 C 228.285156 159.167969 228.207031 158.773438 228.207031 158.367188 L 228.207031 123.585938 C 228.207031 123.175781 228.285156 122.785156 228.441406 122.410156 C 228.597656 122.03125 228.820312 121.699219 229.105469 121.414062 C 229.394531 121.125 229.726562 120.902344 230.105469 120.746094 C 230.480469 120.589844 230.871094 120.511719 231.277344 120.511719 C 231.6875 120.511719 232.078125 120.589844 232.453125 120.746094 C 232.832031 120.902344 233.164062 121.125 233.449219 121.414062 C 233.738281 121.699219 233.960938 122.03125 234.117188 122.410156 C 234.273438 122.785156 234.351562 123.175781 234.351562 123.585938 L 234.351562 158.367188 C 234.351562 158.773438 234.273438 159.167969 234.117188 159.542969 C 233.960938 159.917969 233.738281 160.25 233.449219 160.539062 C 233.164062 160.828125 232.832031 161.050781 232.453125 161.207031 C 232.078125 161.359375 231.6875 161.4375 231.277344 161.4375 Z M 231.277344 161.4375 "/><path style=" stroke:none;fill-rule:nonzero;fill:#ffffff;fill-opacity:1;" d="M 249.417969 161.4375 C 249.011719 161.4375 248.621094 161.359375 248.242188 161.207031 C 247.867188 161.050781 247.535156 160.828125 247.246094 160.539062 C 246.960938 160.25 246.738281 159.917969 246.582031 159.542969 C 246.425781 159.167969 246.347656 158.773438 246.347656 158.367188 L 246.347656 116.730469 C 246.347656 116.324219 246.425781 115.933594 246.582031 115.554688 C 246.738281 115.179688 246.960938 114.847656 247.246094 114.558594 C 247.535156 114.273438 247.867188 114.050781 248.242188 113.894531 C 248.621094 113.738281 249.011719 113.660156 249.417969 113.660156 C 249.828125 113.660156 250.21875 113.738281 250.59375 113.894531 C 250.972656 114.050781 251.304688 114.273438 251.589844 114.558594 C 251.878906 114.847656 252.101562 115.179688 252.257812 115.554688 C 252.414062 115.933594 252.492188 116.324219 252.492188 116.730469 L 252.492188 158.367188 C 252.492188 158.773438 252.414062 159.167969 252.257812 159.542969 C 252.101562 159.917969 251.878906 160.25 251.589844 160.539062 C 251.304688 160.828125 250.972656 161.050781 250.59375 161.207031 C 250.21875 161.359375 249.828125 161.4375 249.417969 161.4375 Z M 249.417969 161.4375 "/><path style=" stroke:none;fill-rule:nonzero;fill:#ffffff;fill-opacity:1;" d="M 267.554688 161.4375 C 267.148438 161.4375 266.757812 161.359375 266.378906 161.207031 C 266.003906 161.050781 265.671875 160.828125 265.382812 160.539062 C 265.097656 160.25 264.875 159.917969 264.71875 159.542969 C 264.5625 159.167969 264.484375 158.773438 264.484375 158.367188 L 264.484375 109.878906 C 264.484375 109.472656 264.5625 109.078125 264.71875 108.703125 C 264.875 108.328125 265.097656 107.996094 265.382812 107.707031 C 265.671875 107.417969 266.003906 107.195312 266.378906 107.039062 C 266.757812 106.886719 267.148438 106.808594 267.554688 106.808594 C 267.964844 106.808594 268.355469 106.886719 268.730469 107.039062 C 269.105469 107.195312 269.441406 107.417969 269.726562 107.707031 C 270.015625 107.996094 270.238281 108.328125 270.394531 108.703125 C 270.550781 109.078125 270.628906 109.472656 270.628906 109.878906 L 270.628906 158.367188 C 270.628906 158.773438 270.550781 159.167969 270.394531 159.542969 C 270.238281 159.917969 270.015625 160.25 269.726562 160.539062 C 269.441406 160.828125 269.105469 161.050781 268.730469 161.207031 C 268.355469 161.359375 267.964844 161.4375 267.554688 161.4375 Z M 267.554688 161.4375 "/><path style=" stroke:none;fill-rule:nonzero;fill:#ffffff;fill-opacity:1;" d="M 285.695312 161.4375 C 285.289062 161.4375 284.898438 161.359375 284.519531 161.207031 C 284.144531 161.050781 283.8125 160.828125 283.523438 160.539062 C 283.234375 160.25 283.015625 159.917969 282.859375 159.542969 C 282.703125 159.167969 282.625 158.773438 282.625 158.367188 L 282.625 99.601562 C 282.625 99.195312 282.703125 98.800781 282.859375 98.425781 C 283.015625 98.050781 283.234375 97.71875 283.523438 97.429688 C 283.8125 97.140625 284.144531 96.917969 284.519531 96.761719 C 284.898438 96.605469 285.289062 96.53125 285.695312 96.53125 C 286.101562 96.53125 286.496094 96.605469 286.871094 96.761719 C 287.246094 96.917969 287.578125 97.140625 287.867188 97.429688 C 288.15625 97.71875 288.378906 98.050781 288.535156 98.425781 C 288.691406 98.800781 288.765625 99.195312 288.765625 99.601562 L 288.765625 158.367188 C 288.765625 158.773438 288.6875 159.167969 288.535156 159.542969 C 288.378906 159.917969 288.15625 160.25 287.867188 160.539062 C 287.578125 160.828125 287.246094 161.050781 286.871094 161.207031 C 286.496094 161.359375 286.101562 161.4375 285.695312 161.4375 Z M 285.695312 161.4375 "/><path style=" stroke:none;fill-rule:nonzero;fill:#ffffff;fill-opacity:1;" d="M 138.796875 306.898438 L 69.144531 306.898438 C 68.738281 306.898438 68.347656 306.820312 67.96875 306.664062 C 67.59375 306.507812 67.261719 306.289062 66.972656 306 C 66.683594 305.710938 66.464844 305.378906 66.308594 305.003906 C 66.152344 304.625 66.074219 304.234375 66.074219 303.828125 L 66.074219 290.824219 C 66.074219 289.582031 66.136719 288.347656 66.257812 287.109375 C 66.378906 285.875 66.5625 284.652344 66.804688 283.433594 C 67.046875 282.21875 67.347656 281.015625 67.710938 279.828125 C 68.070312 278.640625 68.488281 277.472656 68.964844 276.328125 C 69.4375 275.179688 69.96875 274.0625 70.554688 272.96875 C 71.140625 271.875 71.777344 270.808594 72.46875 269.777344 C 73.15625 268.746094 73.894531 267.753906 74.683594 266.792969 C 75.46875 265.835938 76.300781 264.917969 77.179688 264.039062 C 78.058594 263.160156 78.976562 262.328125 79.933594 261.542969 C 80.894531 260.757812 81.890625 260.019531 82.921875 259.328125 C 83.953125 258.640625 85.015625 258.003906 86.109375 257.417969 C 87.207031 256.832031 88.324219 256.304688 89.472656 255.828125 C 90.617188 255.355469 91.785156 254.9375 92.972656 254.578125 C 94.160156 254.214844 95.363281 253.914062 96.578125 253.671875 C 97.796875 253.433594 99.023438 253.25 100.257812 253.128906 C 101.492188 253.007812 102.730469 252.945312 103.96875 252.945312 C 105.210938 252.945312 106.449219 253.007812 107.683594 253.128906 C 108.917969 253.25 110.144531 253.433594 111.363281 253.671875 C 112.578125 253.914062 113.78125 254.214844 114.96875 254.578125 C 116.15625 254.9375 117.324219 255.355469 118.46875 255.828125 C 119.617188 256.304688 120.734375 256.832031 121.828125 257.417969 C 122.925781 258.003906 123.988281 258.640625 125.019531 259.328125 C 126.050781 260.019531 127.046875 260.757812 128.007812 261.542969 C 128.964844 262.328125 129.882812 263.160156 130.761719 264.039062 C 131.640625 264.917969 132.472656 265.835938 133.257812 266.792969 C 134.046875 267.753906 134.785156 268.746094 135.472656 269.777344 C 136.164062 270.808594 136.800781 271.875 137.386719 272.96875 C 137.972656 274.0625 138.503906 275.179688 138.976562 276.328125 C 139.453125 277.472656 139.871094 278.640625 140.230469 279.828125 C 140.59375 281.015625 140.894531 282.21875 141.136719 283.433594 C 141.378906 284.652344 141.5625 285.875 141.683594 287.109375 C 141.804688 288.347656 141.867188 289.582031 141.867188 290.824219 L 141.867188 303.828125 C 141.867188 304.234375 141.789062 304.628906 141.632812 305.003906 C 141.476562 305.378906 141.257812 305.710938 140.96875 306 C 140.679688 306.289062 140.347656 306.507812 139.972656 306.664062 C 139.59375 306.820312 139.203125 306.898438 138.796875 306.898438 Z M 72.214844 300.757812 L 135.726562 300.757812 L 135.726562 290.824219 C 135.726562 289.785156 135.671875 288.746094 135.570312 287.710938 C 135.46875 286.675781 135.316406 285.648438 135.113281 284.628906 C 134.910156 283.609375 134.660156 282.601562 134.359375 281.605469 C 134.054688 280.613281 133.707031 279.632812 133.308594 278.671875 C 132.910156 277.710938 132.464844 276.773438 131.976562 275.855469 C 131.484375 274.9375 130.949219 274.046875 130.375 273.183594 C 129.796875 272.316406 129.175781 271.484375 128.515625 270.679688 C 127.855469 269.875 127.160156 269.105469 126.425781 268.371094 C 125.6875 267.636719 124.917969 266.9375 124.113281 266.277344 C 123.3125 265.617188 122.476562 265 121.613281 264.421875 C 120.746094 263.84375 119.855469 263.308594 118.9375 262.820312 C 118.023438 262.328125 117.082031 261.886719 116.121094 261.488281 C 115.160156 261.089844 114.183594 260.738281 113.1875 260.4375 C 112.191406 260.136719 111.183594 259.882812 110.164062 259.679688 C 109.144531 259.476562 108.117188 259.324219 107.082031 259.222656 C 106.046875 259.121094 105.011719 259.070312 103.96875 259.070312 C 102.929688 259.070312 101.894531 259.121094 100.859375 259.222656 C 99.824219 259.324219 98.796875 259.476562 97.777344 259.679688 C 96.753906 259.882812 95.75 260.136719 94.753906 260.4375 C 93.757812 260.738281 92.78125 261.089844 91.820312 261.488281 C 90.859375 261.886719 89.917969 262.328125 89 262.820312 C 88.085938 263.308594 87.195312 263.84375 86.328125 264.421875 C 85.464844 265 84.628906 265.617188 83.824219 266.277344 C 83.023438 266.9375 82.253906 267.636719 81.515625 268.371094 C 80.78125 269.105469 80.085938 269.875 79.425781 270.679688 C 78.765625 271.484375 78.144531 272.316406 77.566406 273.183594 C 76.988281 274.046875 76.457031 274.9375 75.964844 275.855469 C 75.476562 276.773438 75.03125 277.710938 74.632812 278.671875 C 74.234375 279.632812 73.886719 280.613281 73.582031 281.605469 C 73.28125 282.601562 73.03125 283.609375 72.828125 284.628906 C 72.625 285.648438 72.472656 286.675781 72.371094 287.710938 C 72.265625 288.746094 72.214844 289.785156 72.214844 290.824219 Z M 72.214844 300.757812 "/><path style=" stroke:none;fill-rule:nonzero;fill:#ffffff;fill-opacity:1;" d="M 103.96875 259.0625 C 103.308594 259.0625 102.648438 259.03125 101.992188 258.964844 C 101.332031 258.902344 100.679688 258.804688 100.03125 258.675781 C 99.378906 258.546875 98.738281 258.386719 98.105469 258.191406 C 97.472656 258 96.851562 257.777344 96.238281 257.523438 C 95.628906 257.273438 95.03125 256.988281 94.449219 256.675781 C 93.863281 256.367188 93.296875 256.027344 92.746094 255.65625 C 92.195312 255.289062 91.667969 254.898438 91.15625 254.476562 C 90.644531 254.058594 90.152344 253.613281 89.6875 253.144531 C 89.21875 252.679688 88.773438 252.1875 88.355469 251.675781 C 87.933594 251.164062 87.539062 250.632812 87.171875 250.085938 C 86.804688 249.535156 86.464844 248.96875 86.152344 248.382812 C 85.84375 247.800781 85.558594 247.203125 85.304688 246.589844 C 85.054688 245.980469 84.832031 245.359375 84.636719 244.726562 C 84.445312 244.09375 84.285156 243.449219 84.15625 242.800781 C 84.027344 242.152344 83.929688 241.5 83.867188 240.839844 C 83.800781 240.183594 83.769531 239.523438 83.769531 238.859375 C 83.769531 238.199219 83.800781 237.539062 83.867188 236.878906 C 83.929688 236.222656 84.027344 235.570312 84.15625 234.917969 C 84.285156 234.269531 84.445312 233.628906 84.636719 232.996094 C 84.832031 232.363281 85.054688 231.742188 85.304688 231.128906 C 85.558594 230.519531 85.84375 229.921875 86.152344 229.335938 C 86.464844 228.753906 86.804688 228.1875 87.171875 227.636719 C 87.539062 227.085938 87.933594 226.554688 88.355469 226.042969 C 88.773438 225.535156 89.21875 225.042969 89.6875 224.574219 C 90.152344 224.109375 90.644531 223.664062 91.15625 223.246094 C 91.667969 222.824219 92.195312 222.429688 92.746094 222.0625 C 93.296875 221.695312 93.863281 221.355469 94.449219 221.042969 C 95.03125 220.730469 95.628906 220.449219 96.238281 220.195312 C 96.851562 219.941406 97.472656 219.71875 98.105469 219.527344 C 98.738281 219.335938 99.378906 219.175781 100.03125 219.046875 C 100.679688 218.917969 101.332031 218.820312 101.992188 218.757812 C 102.648438 218.691406 103.308594 218.660156 103.96875 218.660156 C 104.632812 218.660156 105.292969 218.691406 105.949219 218.757812 C 106.609375 218.820312 107.261719 218.917969 107.910156 219.046875 C 108.5625 219.175781 109.203125 219.335938 109.835938 219.527344 C 110.46875 219.71875 111.089844 219.941406 111.703125 220.195312 C 112.3125 220.449219 112.910156 220.730469 113.492188 221.042969 C 114.078125 221.355469 114.644531 221.695312 115.195312 222.0625 C 115.746094 222.429688 116.273438 222.824219 116.785156 223.246094 C 117.296875 223.664062 117.789062 224.109375 118.253906 224.574219 C 118.722656 225.042969 119.167969 225.535156 119.585938 226.042969 C 120.007812 226.554688 120.398438 227.085938 120.769531 227.636719 C 121.136719 228.1875 121.476562 228.753906 121.789062 229.335938 C 122.097656 229.921875 122.382812 230.519531 122.632812 231.128906 C 122.886719 231.742188 123.109375 232.363281 123.300781 232.996094 C 123.496094 233.628906 123.65625 234.269531 123.785156 234.917969 C 123.914062 235.570312 124.011719 236.222656 124.074219 236.878906 C 124.140625 237.539062 124.171875 238.199219 124.171875 238.859375 C 124.171875 239.523438 124.140625 240.183594 124.074219 240.839844 C 124.007812 241.5 123.910156 242.152344 123.78125 242.800781 C 123.652344 243.449219 123.492188 244.089844 123.296875 244.722656 C 123.105469 245.355469 122.882812 245.976562 122.628906 246.589844 C 122.375 247.199219 122.09375 247.796875 121.78125 248.378906 C 121.46875 248.964844 121.128906 249.53125 120.761719 250.078125 C 120.394531 250.628906 120 251.160156 119.582031 251.671875 C 119.160156 252.183594 118.71875 252.671875 118.25 253.140625 C 117.78125 253.609375 117.292969 254.050781 116.78125 254.472656 C 116.269531 254.890625 115.738281 255.285156 115.191406 255.652344 C 114.640625 256.019531 114.074219 256.359375 113.488281 256.671875 C 112.90625 256.984375 112.308594 257.265625 111.699219 257.519531 C 111.085938 257.773438 110.464844 257.996094 109.832031 258.1875 C 109.199219 258.378906 108.558594 258.542969 107.910156 258.671875 C 107.261719 258.800781 106.609375 258.898438 105.949219 258.964844 C 105.292969 259.027344 104.632812 259.0625 103.96875 259.0625 Z M 103.96875 224.800781 C 103.046875 224.800781 102.132812 224.890625 101.226562 225.070312 C 100.324219 225.25 99.441406 225.519531 98.589844 225.871094 C 97.738281 226.226562 96.925781 226.65625 96.160156 227.171875 C 95.390625 227.683594 94.683594 228.265625 94.027344 228.917969 C 93.375 229.570312 92.792969 230.28125 92.28125 231.050781 C 91.769531 231.816406 91.335938 232.628906 90.980469 233.480469 C 90.628906 234.332031 90.363281 235.210938 90.179688 236.117188 C 90 237.023438 89.910156 237.9375 89.910156 238.859375 C 89.910156 239.785156 90 240.699219 90.179688 241.601562 C 90.363281 242.507812 90.628906 243.386719 90.980469 244.242188 C 91.335938 245.09375 91.769531 245.902344 92.28125 246.671875 C 92.792969 247.4375 93.375 248.148438 94.027344 248.800781 C 94.683594 249.453125 95.390625 250.039062 96.160156 250.550781 C 96.925781 251.0625 97.738281 251.496094 98.589844 251.851562 C 99.441406 252.203125 100.324219 252.46875 101.226562 252.648438 C 102.132812 252.828125 103.046875 252.917969 103.96875 252.917969 C 104.894531 252.917969 105.808594 252.828125 106.714844 252.648438 C 107.617188 252.46875 108.496094 252.203125 109.351562 251.851562 C 110.203125 251.496094 111.015625 251.0625 111.78125 250.550781 C 112.550781 250.039062 113.257812 249.453125 113.910156 248.800781 C 114.566406 248.148438 115.148438 247.4375 115.660156 246.671875 C 116.171875 245.902344 116.605469 245.09375 116.960938 244.242188 C 117.3125 243.386719 117.578125 242.507812 117.757812 241.601562 C 117.941406 240.699219 118.03125 239.785156 118.03125 238.859375 C 118.027344 237.9375 117.9375 237.023438 117.757812 236.117188 C 117.578125 235.214844 117.308594 234.335938 116.957031 233.484375 C 116.601562 232.628906 116.167969 231.820312 115.65625 231.054688 C 115.144531 230.285156 114.558594 229.578125 113.90625 228.921875 C 113.253906 228.269531 112.546875 227.6875 111.777344 227.175781 C 111.011719 226.664062 110.199219 226.230469 109.347656 225.875 C 108.496094 225.523438 107.617188 225.253906 106.710938 225.074219 C 105.808594 224.894531 104.894531 224.800781 103.96875 224.800781 Z M 103.96875 224.800781 "/><path style=" stroke:none;fill-rule:nonzero;fill:#ffffff;fill-opacity:1;" d="M 83.675781 306.898438 C 83.269531 306.898438 82.878906 306.820312 82.5 306.664062 C 82.125 306.507812 81.792969 306.289062 81.503906 306 C 81.214844 305.710938 80.996094 305.378906 80.839844 305.003906 C 80.683594 304.625 80.605469 304.234375 80.605469 303.828125 L 80.605469 287.789062 C 80.605469 287.378906 80.683594 286.988281 80.839844 286.613281 C 80.996094 286.234375 81.214844 285.902344 81.503906 285.617188 C 81.792969 285.328125 82.125 285.105469 82.5 284.949219 C 82.878906 284.792969 83.269531 284.714844 83.675781 284.714844 C 84.082031 284.714844 84.476562 284.792969 84.851562 284.949219 C 85.226562 285.105469 85.558594 285.328125 85.847656 285.617188 C 86.136719 285.902344 86.359375 286.234375 86.515625 286.613281 C 86.671875 286.988281 86.746094 287.378906 86.746094 287.789062 L 86.746094 303.828125 C 86.746094 304.234375 86.671875 304.625 86.515625 305.003906 C 86.359375 305.378906 86.136719 305.710938 85.847656 306 C 85.558594 306.289062 85.226562 306.507812 84.851562 306.664062 C 84.476562 306.820312 84.082031 306.898438 83.675781 306.898438 Z M 83.675781 306.898438 "/><path style=" stroke:none;fill-rule:nonzero;fill:#ffffff;fill-opacity:1;" d="M 124.265625 306.898438 C 123.855469 306.898438 123.464844 306.820312 123.089844 306.664062 C 122.714844 306.507812 122.382812 306.289062 122.09375 306 C 121.804688 305.710938 121.582031 305.378906 121.425781 305.003906 C 121.269531 304.625 121.191406 304.234375 121.191406 303.828125 L 121.191406 287.789062 C 121.191406 287.378906 121.269531 286.988281 121.425781 286.613281 C 121.582031 286.234375 121.804688 285.902344 122.09375 285.617188 C 122.382812 285.328125 122.714844 285.105469 123.089844 284.949219 C 123.464844 284.792969 123.855469 284.714844 124.265625 284.714844 C 124.671875 284.714844 125.0625 284.792969 125.441406 284.949219 C 125.816406 285.105469 126.148438 285.328125 126.4375 285.617188 C 126.722656 285.902344 126.945312 286.234375 127.101562 286.613281 C 127.257812 286.988281 127.335938 287.378906 127.335938 287.789062 L 127.335938 303.828125 C 127.335938 304.234375 127.257812 304.625 127.101562 305.003906 C 126.945312 305.378906 126.722656 305.710938 126.4375 306 C 126.148438 306.289062 125.816406 306.507812 125.441406 306.664062 C 125.0625 306.820312 124.671875 306.898438 124.265625 306.898438 Z M 124.265625 306.898438 "/><path style=" stroke:none;fill-rule:nonzero;fill:#ffffff;fill-opacity:1;" d="M 226.824219 306.898438 L 157.175781 306.898438 C 156.765625 306.898438 156.375 306.820312 156 306.664062 C 155.621094 306.507812 155.289062 306.289062 155.003906 306 C 154.714844 305.710938 154.492188 305.378906 154.335938 305.003906 C 154.179688 304.625 154.101562 304.234375 154.101562 303.828125 L 154.101562 290.824219 C 154.101562 289.582031 154.164062 288.34375 154.285156 287.109375 C 154.40625 285.875 154.589844 284.648438 154.832031 283.429688 C 155.074219 282.214844 155.375 281.011719 155.734375 279.824219 C 156.09375 278.636719 156.511719 277.46875 156.988281 276.320312 C 157.460938 275.175781 157.992188 274.054688 158.578125 272.960938 C 159.164062 271.867188 159.800781 270.800781 160.488281 269.769531 C 161.179688 268.738281 161.917969 267.742188 162.707031 266.78125 C 163.492188 265.824219 164.324219 264.90625 165.203125 264.027344 C 166.082031 263.148438 167 262.316406 167.957031 261.53125 C 168.917969 260.742188 169.914062 260.003906 170.945312 259.3125 C 171.976562 258.625 173.039062 257.988281 174.136719 257.402344 C 175.230469 256.816406 176.351562 256.289062 177.496094 255.8125 C 178.644531 255.335938 179.8125 254.917969 181 254.558594 C 182.1875 254.199219 183.390625 253.898438 184.605469 253.65625 C 185.824219 253.414062 187.050781 253.230469 188.285156 253.109375 C 189.519531 252.988281 190.757812 252.925781 192 252.925781 C 193.242188 252.925781 194.480469 252.988281 195.714844 253.109375 C 196.949219 253.230469 198.175781 253.414062 199.394531 253.65625 C 200.609375 253.898438 201.8125 254.199219 203 254.558594 C 204.1875 254.917969 205.355469 255.335938 206.503906 255.8125 C 207.648438 256.289062 208.769531 256.816406 209.863281 257.402344 C 210.960938 257.988281 212.023438 258.625 213.054688 259.3125 C 214.085938 260.003906 215.082031 260.742188 216.042969 261.53125 C 217 262.316406 217.917969 263.148438 218.796875 264.027344 C 219.675781 264.90625 220.507812 265.824219 221.292969 266.78125 C 222.082031 267.742188 222.820312 268.738281 223.511719 269.769531 C 224.199219 270.800781 224.835938 271.867188 225.421875 272.960938 C 226.007812 274.054688 226.539062 275.175781 227.011719 276.320312 C 227.488281 277.46875 227.90625 278.636719 228.265625 279.824219 C 228.625 281.011719 228.925781 282.214844 229.167969 283.429688 C 229.410156 284.648438 229.59375 285.875 229.714844 287.109375 C 229.835938 288.34375 229.898438 289.582031 229.898438 290.824219 L 229.898438 303.828125 C 229.898438 304.234375 229.820312 304.625 229.664062 305.003906 C 229.507812 305.378906 229.285156 305.710938 228.996094 306 C 228.710938 306.289062 228.378906 306.507812 228 306.664062 C 227.625 306.820312 227.234375 306.898438 226.824219 306.898438 Z M 160.246094 300.757812 L 223.753906 300.757812 L 223.753906 290.824219 C 223.753906 289.785156 223.703125 288.746094 223.601562 287.710938 C 223.5 286.675781 223.347656 285.648438 223.144531 284.628906 C 222.941406 283.609375 222.6875 282.601562 222.386719 281.605469 C 222.085938 280.613281 221.734375 279.632812 221.335938 278.671875 C 220.9375 277.710938 220.496094 276.773438 220.003906 275.855469 C 219.515625 274.9375 218.980469 274.046875 218.402344 273.183594 C 217.824219 272.316406 217.207031 271.484375 216.546875 270.679688 C 215.886719 269.875 215.1875 269.105469 214.453125 268.371094 C 213.71875 267.636719 212.949219 266.9375 212.144531 266.277344 C 211.339844 265.617188 210.507812 265 209.640625 264.421875 C 208.777344 263.84375 207.886719 263.308594 206.96875 262.820312 C 206.050781 262.328125 205.113281 261.886719 204.152344 261.488281 C 203.191406 261.089844 202.214844 260.738281 201.21875 260.4375 C 200.222656 260.136719 199.214844 259.882812 198.195312 259.679688 C 197.175781 259.476562 196.148438 259.324219 195.113281 259.222656 C 194.078125 259.121094 193.039062 259.070312 192 259.070312 C 190.960938 259.070312 189.921875 259.121094 188.886719 259.222656 C 187.851562 259.324219 186.824219 259.476562 185.804688 259.679688 C 184.785156 259.882812 183.777344 260.136719 182.78125 260.4375 C 181.785156 260.738281 180.808594 261.089844 179.847656 261.488281 C 178.886719 261.886719 177.949219 262.328125 177.03125 262.820312 C 176.113281 263.308594 175.222656 263.84375 174.359375 264.421875 C 173.492188 265 172.660156 265.617188 171.855469 266.277344 C 171.050781 266.9375 170.28125 267.636719 169.546875 268.371094 C 168.8125 269.105469 168.113281 269.875 167.453125 270.679688 C 166.792969 271.484375 166.175781 272.316406 165.597656 273.183594 C 165.019531 274.046875 164.484375 274.9375 163.996094 275.855469 C 163.503906 276.773438 163.0625 277.710938 162.664062 278.671875 C 162.265625 279.632812 161.914062 280.613281 161.613281 281.605469 C 161.3125 282.601562 161.058594 283.609375 160.855469 284.628906 C 160.652344 285.648438 160.5 286.675781 160.398438 287.710938 C 160.296875 288.746094 160.246094 289.785156 160.246094 290.824219 Z M 160.246094 300.757812 "/><path style=" stroke:none;fill-rule:nonzero;fill:#ffffff;fill-opacity:1;" d="M 192 259.0625 C 191.339844 259.0625 190.679688 259.03125 190.019531 258.964844 C 189.363281 258.902344 188.707031 258.804688 188.058594 258.675781 C 187.410156 258.546875 186.769531 258.386719 186.136719 258.191406 C 185.503906 258 184.878906 257.777344 184.269531 257.523438 C 183.65625 257.273438 183.058594 256.988281 182.476562 256.675781 C 181.894531 256.367188 181.328125 256.027344 180.777344 255.65625 C 180.226562 255.289062 179.695312 254.898438 179.183594 254.476562 C 178.671875 254.058594 178.183594 253.613281 177.714844 253.144531 C 177.246094 252.679688 176.804688 252.1875 176.382812 251.675781 C 175.964844 251.164062 175.570312 250.632812 175.203125 250.085938 C 174.835938 249.535156 174.496094 248.96875 174.183594 248.382812 C 173.871094 247.800781 173.589844 247.203125 173.335938 246.589844 C 173.082031 245.980469 172.859375 245.359375 172.667969 244.726562 C 172.476562 244.09375 172.316406 243.449219 172.1875 242.800781 C 172.058594 242.152344 171.960938 241.5 171.894531 240.839844 C 171.832031 240.183594 171.796875 239.523438 171.796875 238.859375 C 171.796875 238.199219 171.832031 237.539062 171.894531 236.878906 C 171.960938 236.222656 172.058594 235.570312 172.1875 234.917969 C 172.316406 234.269531 172.476562 233.628906 172.667969 232.996094 C 172.859375 232.363281 173.082031 231.742188 173.335938 231.128906 C 173.589844 230.519531 173.871094 229.921875 174.183594 229.335938 C 174.496094 228.753906 174.835938 228.1875 175.203125 227.636719 C 175.570312 227.085938 175.964844 226.554688 176.382812 226.042969 C 176.804688 225.535156 177.246094 225.042969 177.714844 224.574219 C 178.183594 224.109375 178.671875 223.664062 179.183594 223.246094 C 179.695312 222.824219 180.226562 222.429688 180.777344 222.0625 C 181.328125 221.695312 181.894531 221.355469 182.476562 221.042969 C 183.058594 220.730469 183.65625 220.449219 184.269531 220.195312 C 184.878906 219.941406 185.503906 219.71875 186.136719 219.527344 C 186.769531 219.335938 187.410156 219.175781 188.058594 219.046875 C 188.707031 218.917969 189.363281 218.820312 190.019531 218.757812 C 190.679688 218.691406 191.339844 218.660156 192 218.660156 C 192.660156 218.660156 193.320312 218.691406 193.980469 218.757812 C 194.636719 218.820312 195.292969 218.917969 195.941406 219.046875 C 196.589844 219.175781 197.230469 219.335938 197.863281 219.527344 C 198.496094 219.71875 199.121094 219.941406 199.730469 220.195312 C 200.34375 220.449219 200.941406 220.730469 201.523438 221.042969 C 202.105469 221.355469 202.671875 221.695312 203.222656 222.0625 C 203.773438 222.429688 204.304688 222.824219 204.816406 223.246094 C 205.328125 223.664062 205.816406 224.109375 206.285156 224.574219 C 206.753906 225.042969 207.195312 225.535156 207.617188 226.042969 C 208.035156 226.554688 208.429688 227.085938 208.796875 227.636719 C 209.164062 228.1875 209.503906 228.753906 209.816406 229.335938 C 210.128906 229.921875 210.410156 230.519531 210.664062 231.128906 C 210.917969 231.742188 211.140625 232.363281 211.332031 232.996094 C 211.523438 233.628906 211.683594 234.269531 211.8125 234.917969 C 211.941406 235.570312 212.039062 236.222656 212.105469 236.878906 C 212.167969 237.539062 212.203125 238.199219 212.203125 238.859375 C 212.203125 239.523438 212.167969 240.183594 212.101562 240.839844 C 212.035156 241.5 211.941406 242.152344 211.808594 242.800781 C 211.679688 243.449219 211.519531 244.089844 211.328125 244.722656 C 211.132812 245.355469 210.910156 245.976562 210.65625 246.589844 C 210.40625 247.199219 210.121094 247.796875 209.808594 248.378906 C 209.496094 248.960938 209.15625 249.527344 208.789062 250.078125 C 208.421875 250.628906 208.027344 251.160156 207.609375 251.671875 C 207.191406 252.183594 206.746094 252.671875 206.277344 253.140625 C 205.808594 253.605469 205.320312 254.050781 204.808594 254.46875 C 204.296875 254.890625 203.769531 255.285156 203.21875 255.652344 C 202.667969 256.019531 202.101562 256.359375 201.519531 256.671875 C 200.933594 256.984375 200.339844 257.265625 199.726562 257.519531 C 199.117188 257.773438 198.496094 257.996094 197.863281 258.1875 C 197.230469 258.378906 196.589844 258.542969 195.941406 258.671875 C 195.289062 258.800781 194.636719 258.898438 193.980469 258.964844 C 193.320312 259.027344 192.660156 259.0625 192 259.0625 Z M 192 224.800781 C 191.078125 224.800781 190.164062 224.890625 189.257812 225.070312 C 188.351562 225.25 187.472656 225.519531 186.621094 225.871094 C 185.765625 226.226562 184.957031 226.65625 184.1875 227.171875 C 183.421875 227.683594 182.710938 228.265625 182.058594 228.917969 C 181.40625 229.570312 180.824219 230.28125 180.308594 231.050781 C 179.796875 231.816406 179.363281 232.628906 179.011719 233.480469 C 178.65625 234.332031 178.390625 235.210938 178.210938 236.117188 C 178.03125 237.023438 177.941406 237.9375 177.941406 238.859375 C 177.941406 239.785156 178.03125 240.699219 178.210938 241.601562 C 178.390625 242.507812 178.65625 243.386719 179.011719 244.242188 C 179.363281 245.09375 179.796875 245.902344 180.308594 246.671875 C 180.824219 247.4375 181.40625 248.148438 182.058594 248.800781 C 182.710938 249.453125 183.421875 250.039062 184.1875 250.550781 C 184.957031 251.0625 185.765625 251.496094 186.621094 251.851562 C 187.472656 252.203125 188.351562 252.46875 189.257812 252.648438 C 190.164062 252.828125 191.078125 252.917969 192 252.917969 C 192.921875 252.917969 193.835938 252.828125 194.742188 252.648438 C 195.648438 252.46875 196.527344 252.203125 197.378906 251.851562 C 198.234375 251.496094 199.042969 251.0625 199.8125 250.550781 C 200.578125 250.039062 201.289062 249.453125 201.941406 248.800781 C 202.59375 248.148438 203.175781 247.4375 203.691406 246.671875 C 204.203125 245.902344 204.636719 245.09375 204.988281 244.242188 C 205.34375 243.386719 205.609375 242.507812 205.789062 241.601562 C 205.96875 240.699219 206.058594 239.785156 206.058594 238.859375 C 206.058594 237.9375 205.96875 237.023438 205.785156 236.117188 C 205.605469 235.214844 205.339844 234.335938 204.984375 233.484375 C 204.632812 232.628906 204.199219 231.820312 203.683594 231.054688 C 203.171875 230.285156 202.589844 229.578125 201.9375 228.921875 C 201.285156 228.269531 200.574219 227.6875 199.808594 227.175781 C 199.039062 226.664062 198.230469 226.230469 197.378906 225.875 C 196.527344 225.523438 195.648438 225.253906 194.742188 225.074219 C 193.835938 224.894531 192.921875 224.800781 192 224.800781 Z M 192 224.800781 "/><path style=" stroke:none;fill-rule:nonzero;fill:#ffffff;fill-opacity:1;" d="M 171.707031 306.898438 C 171.296875 306.898438 170.90625 306.820312 170.53125 306.664062 C 170.152344 306.507812 169.820312 306.289062 169.535156 306 C 169.246094 305.710938 169.023438 305.378906 168.867188 305.003906 C 168.710938 304.625 168.632812 304.234375 168.632812 303.828125 L 168.632812 287.789062 C 168.632812 287.378906 168.710938 286.988281 168.867188 286.613281 C 169.023438 286.234375 169.246094 285.902344 169.535156 285.617188 C 169.820312 285.328125 170.152344 285.105469 170.53125 284.949219 C 170.90625 284.792969 171.296875 284.714844 171.707031 284.714844 C 172.113281 284.714844 172.503906 284.792969 172.882812 284.949219 C 173.257812 285.105469 173.589844 285.328125 173.878906 285.617188 C 174.164062 285.902344 174.386719 286.234375 174.542969 286.613281 C 174.699219 286.988281 174.777344 287.378906 174.777344 287.789062 L 174.777344 303.828125 C 174.777344 304.234375 174.699219 304.625 174.542969 305.003906 C 174.386719 305.378906 174.164062 305.710938 173.878906 306 C 173.589844 306.289062 173.257812 306.507812 172.882812 306.664062 C 172.503906 306.820312 172.113281 306.898438 171.707031 306.898438 Z M 171.707031 306.898438 "/><path style=" stroke:none;fill-rule:nonzero;fill:#ffffff;fill-opacity:1;" d="M 212.292969 306.898438 C 211.886719 306.898438 211.496094 306.820312 211.117188 306.664062 C 210.742188 306.507812 210.410156 306.289062 210.121094 306 C 209.835938 305.710938 209.613281 305.378906 209.457031 305.003906 C 209.300781 304.625 209.222656 304.234375 209.222656 303.828125 L 209.222656 287.789062 C 209.222656 287.378906 209.300781 286.988281 209.457031 286.613281 C 209.613281 286.234375 209.835938 285.902344 210.121094 285.617188 C 210.410156 285.328125 210.742188 285.105469 211.117188 284.949219 C 211.496094 284.792969 211.886719 284.714844 212.292969 284.714844 C 212.703125 284.714844 213.09375 284.792969 213.46875 284.949219 C 213.847656 285.105469 214.179688 285.328125 214.464844 285.617188 C 214.753906 285.902344 214.976562 286.234375 215.132812 286.613281 C 215.289062 286.988281 215.367188 287.378906 215.367188 287.789062 L 215.367188 303.828125 C 215.367188 304.234375 215.289062 304.625 215.132812 305.003906 C 214.976562 305.378906 214.753906 305.710938 214.464844 306 C 214.179688 306.289062 213.847656 306.507812 213.46875 306.664062 C 213.09375 306.820312 212.703125 306.898438 212.292969 306.898438 Z M 212.292969 306.898438 "/><path style=" stroke:none;fill-rule:nonzero;fill:#ffffff;fill-opacity:1;" d="M 314.855469 306.898438 L 245.203125 306.898438 C 244.796875 306.898438 244.40625 306.820312 244.027344 306.664062 C 243.652344 306.507812 243.320312 306.289062 243.03125 306 C 242.742188 305.710938 242.523438 305.378906 242.367188 305.003906 C 242.210938 304.625 242.132812 304.234375 242.132812 303.828125 L 242.132812 290.824219 C 242.132812 289.582031 242.195312 288.347656 242.316406 287.113281 C 242.441406 285.878906 242.621094 284.652344 242.863281 283.433594 C 243.109375 282.21875 243.410156 281.015625 243.769531 279.828125 C 244.132812 278.640625 244.550781 277.476562 245.023438 276.328125 C 245.5 275.183594 246.03125 274.0625 246.617188 272.96875 C 247.199219 271.875 247.839844 270.8125 248.527344 269.78125 C 249.21875 268.75 249.957031 267.757812 250.742188 266.796875 C 251.53125 265.839844 252.363281 264.921875 253.242188 264.042969 C 254.117188 263.167969 255.039062 262.335938 255.996094 261.546875 C 256.957031 260.761719 257.953125 260.023438 258.984375 259.335938 C 260.015625 258.644531 261.078125 258.007812 262.171875 257.425781 C 263.265625 256.839844 264.386719 256.308594 265.53125 255.835938 C 266.679688 255.363281 267.847656 254.945312 269.03125 254.585938 C 270.21875 254.222656 271.421875 253.921875 272.640625 253.679688 C 273.855469 253.4375 275.082031 253.257812 276.316406 253.136719 C 277.550781 253.015625 278.789062 252.953125 280.03125 252.953125 C 281.269531 252.953125 282.507812 253.015625 283.742188 253.136719 C 284.976562 253.257812 286.203125 253.4375 287.417969 253.679688 C 288.636719 253.921875 289.839844 254.222656 291.027344 254.585938 C 292.210938 254.945312 293.378906 255.363281 294.527344 255.835938 C 295.671875 256.308594 296.792969 256.839844 297.886719 257.425781 C 298.980469 258.007812 300.042969 258.644531 301.074219 259.335938 C 302.105469 260.023438 303.101562 260.761719 304.0625 261.546875 C 305.019531 262.335938 305.941406 263.167969 306.816406 264.042969 C 307.695312 264.921875 308.527344 265.839844 309.316406 266.796875 C 310.101562 267.757812 310.839844 268.75 311.53125 269.78125 C 312.21875 270.8125 312.859375 271.875 313.441406 272.96875 C 314.027344 274.0625 314.558594 275.183594 315.035156 276.328125 C 315.507812 277.476562 315.925781 278.640625 316.289062 279.828125 C 316.648438 281.015625 316.949219 282.21875 317.195312 283.433594 C 317.4375 284.652344 317.617188 285.878906 317.742188 287.113281 C 317.863281 288.347656 317.925781 289.582031 317.925781 290.824219 L 317.925781 303.828125 C 317.925781 304.234375 317.847656 304.625 317.691406 305.003906 C 317.535156 305.378906 317.316406 305.710938 317.027344 306 C 316.738281 306.289062 316.40625 306.507812 316.03125 306.664062 C 315.652344 306.820312 315.261719 306.898438 314.855469 306.898438 Z M 248.273438 300.757812 L 311.785156 300.757812 L 311.785156 290.824219 C 311.785156 289.785156 311.734375 288.746094 311.628906 287.710938 C 311.527344 286.675781 311.375 285.648438 311.171875 284.628906 C 310.96875 283.609375 310.71875 282.601562 310.417969 281.605469 C 310.113281 280.613281 309.765625 279.632812 309.367188 278.671875 C 308.96875 277.710938 308.523438 276.773438 308.035156 275.855469 C 307.542969 274.9375 307.007812 274.046875 306.433594 273.183594 C 305.855469 272.316406 305.234375 271.484375 304.574219 270.679688 C 303.914062 269.875 303.21875 269.105469 302.484375 268.371094 C 301.746094 267.636719 300.976562 266.9375 300.175781 266.277344 C 299.371094 265.617188 298.535156 265 297.671875 264.421875 C 296.804688 263.84375 295.914062 263.308594 295 262.820312 C 294.082031 262.328125 293.140625 261.886719 292.179688 261.488281 C 291.21875 261.089844 290.242188 260.738281 289.246094 260.4375 C 288.25 260.136719 287.246094 259.882812 286.222656 259.679688 C 285.203125 259.476562 284.175781 259.324219 283.140625 259.222656 C 282.105469 259.121094 281.070312 259.070312 280.03125 259.070312 C 278.988281 259.070312 277.953125 259.121094 276.917969 259.222656 C 275.882812 259.324219 274.855469 259.476562 273.835938 259.679688 C 272.8125 259.882812 271.808594 260.136719 270.8125 260.4375 C 269.816406 260.738281 268.839844 261.089844 267.878906 261.488281 C 266.917969 261.886719 265.976562 262.328125 265.058594 262.820312 C 264.144531 263.308594 263.253906 263.84375 262.386719 264.421875 C 261.523438 265 260.6875 265.617188 259.882812 266.277344 C 259.082031 266.9375 258.3125 267.636719 257.574219 268.371094 C 256.839844 269.105469 256.144531 269.875 255.484375 270.679688 C 254.824219 271.484375 254.203125 272.316406 253.625 273.183594 C 253.050781 274.046875 252.515625 274.9375 252.023438 275.855469 C 251.535156 276.773438 251.089844 277.710938 250.691406 278.671875 C 250.292969 279.632812 249.945312 280.613281 249.640625 281.605469 C 249.339844 282.601562 249.089844 283.609375 248.886719 284.628906 C 248.683594 285.648438 248.53125 286.675781 248.429688 287.710938 C 248.328125 288.746094 248.273438 289.785156 248.273438 290.824219 Z M 248.273438 300.757812 "/><path style=" stroke:none;fill-rule:nonzero;fill:#ffffff;fill-opacity:1;" d="M 280.03125 259.0625 C 279.367188 259.0625 278.707031 259.03125 278.050781 258.964844 C 277.390625 258.902344 276.738281 258.804688 276.089844 258.675781 C 275.4375 258.546875 274.796875 258.386719 274.164062 258.191406 C 273.53125 258 272.910156 257.777344 272.296875 257.523438 C 271.6875 257.273438 271.089844 256.988281 270.507812 256.675781 C 269.921875 256.367188 269.355469 256.027344 268.804688 255.65625 C 268.253906 255.289062 267.726562 254.898438 267.214844 254.476562 C 266.703125 254.058594 266.210938 253.613281 265.746094 253.144531 C 265.277344 252.679688 264.832031 252.1875 264.414062 251.675781 C 263.992188 251.164062 263.601562 250.632812 263.230469 250.085938 C 262.863281 249.535156 262.523438 248.96875 262.210938 248.382812 C 261.902344 247.800781 261.617188 247.203125 261.363281 246.589844 C 261.113281 245.980469 260.890625 245.359375 260.699219 244.726562 C 260.503906 244.09375 260.34375 243.449219 260.214844 242.800781 C 260.085938 242.152344 259.988281 241.5 259.925781 240.839844 C 259.859375 240.183594 259.828125 239.523438 259.828125 238.859375 C 259.828125 238.199219 259.859375 237.539062 259.925781 236.878906 C 259.988281 236.222656 260.085938 235.570312 260.214844 234.917969 C 260.34375 234.269531 260.503906 233.628906 260.699219 232.996094 C 260.890625 232.363281 261.113281 231.742188 261.363281 231.128906 C 261.617188 230.519531 261.902344 229.921875 262.210938 229.335938 C 262.523438 228.753906 262.863281 228.1875 263.230469 227.636719 C 263.601562 227.085938 263.992188 226.554688 264.414062 226.042969 C 264.832031 225.535156 265.277344 225.042969 265.746094 224.574219 C 266.210938 224.109375 266.703125 223.664062 267.214844 223.246094 C 267.726562 222.824219 268.253906 222.429688 268.804688 222.0625 C 269.355469 221.695312 269.921875 221.355469 270.507812 221.042969 C 271.089844 220.730469 271.6875 220.449219 272.296875 220.195312 C 272.910156 219.941406 273.53125 219.71875 274.164062 219.527344 C 274.796875 219.335938 275.4375 219.175781 276.089844 219.046875 C 276.738281 218.917969 277.390625 218.820312 278.050781 218.757812 C 278.707031 218.691406 279.367188 218.660156 280.03125 218.660156 C 280.691406 218.660156 281.351562 218.691406 282.007812 218.757812 C 282.667969 218.820312 283.320312 218.917969 283.96875 219.046875 C 284.621094 219.175781 285.261719 219.335938 285.894531 219.527344 C 286.527344 219.71875 287.148438 219.941406 287.761719 220.195312 C 288.371094 220.449219 288.96875 220.730469 289.550781 221.042969 C 290.136719 221.355469 290.703125 221.695312 291.253906 222.0625 C 291.804688 222.429688 292.332031 222.824219 292.84375 223.246094 C 293.355469 223.664062 293.847656 224.109375 294.3125 224.574219 C 294.78125 225.042969 295.226562 225.535156 295.644531 226.042969 C 296.066406 226.554688 296.460938 227.085938 296.828125 227.636719 C 297.195312 228.1875 297.535156 228.753906 297.847656 229.335938 C 298.15625 229.921875 298.441406 230.519531 298.695312 231.128906 C 298.945312 231.742188 299.167969 232.363281 299.363281 232.996094 C 299.554688 233.628906 299.714844 234.269531 299.84375 234.917969 C 299.972656 235.570312 300.070312 236.222656 300.132812 236.878906 C 300.199219 237.539062 300.230469 238.199219 300.230469 238.859375 C 300.230469 239.523438 300.199219 240.183594 300.132812 240.839844 C 300.066406 241.5 299.96875 242.152344 299.839844 242.800781 C 299.710938 243.449219 299.546875 244.089844 299.355469 244.722656 C 299.164062 245.355469 298.941406 245.976562 298.6875 246.589844 C 298.433594 247.199219 298.152344 247.796875 297.839844 248.378906 C 297.527344 248.960938 297.1875 249.527344 296.820312 250.078125 C 296.453125 250.628906 296.058594 251.160156 295.636719 251.671875 C 295.21875 252.183594 294.773438 252.671875 294.308594 253.140625 C 293.839844 253.605469 293.351562 254.050781 292.839844 254.46875 C 292.328125 254.890625 291.796875 255.285156 291.246094 255.652344 C 290.699219 256.019531 290.132812 256.359375 289.546875 256.671875 C 288.964844 256.984375 288.367188 257.265625 287.757812 257.519531 C 287.144531 257.773438 286.523438 257.996094 285.890625 258.1875 C 285.257812 258.378906 284.617188 258.542969 283.96875 258.671875 C 283.320312 258.800781 282.667969 258.898438 282.007812 258.964844 C 281.351562 259.027344 280.691406 259.0625 280.03125 259.0625 Z M 280.03125 224.800781 C 279.105469 224.800781 278.191406 224.890625 277.285156 225.070312 C 276.382812 225.25 275.503906 225.519531 274.648438 225.871094 C 273.796875 226.226562 272.984375 226.65625 272.21875 227.171875 C 271.449219 227.683594 270.742188 228.265625 270.089844 228.917969 C 269.433594 229.570312 268.851562 230.28125 268.339844 231.050781 C 267.828125 231.816406 267.394531 232.628906 267.039062 233.480469 C 266.6875 234.332031 266.421875 235.210938 266.242188 236.117188 C 266.058594 237.023438 265.96875 237.9375 265.96875 238.859375 C 265.96875 239.785156 266.058594 240.699219 266.242188 241.601562 C 266.421875 242.507812 266.6875 243.386719 267.039062 244.242188 C 267.394531 245.09375 267.828125 245.902344 268.339844 246.671875 C 268.851562 247.4375 269.433594 248.148438 270.089844 248.800781 C 270.742188 249.453125 271.449219 250.039062 272.21875 250.550781 C 272.984375 251.0625 273.796875 251.496094 274.648438 251.851562 C 275.503906 252.203125 276.382812 252.46875 277.285156 252.648438 C 278.191406 252.828125 279.105469 252.917969 280.03125 252.917969 C 280.953125 252.917969 281.867188 252.828125 282.773438 252.648438 C 283.675781 252.46875 284.558594 252.203125 285.410156 251.851562 C 286.261719 251.496094 287.074219 251.0625 287.839844 250.550781 C 288.609375 250.039062 289.316406 249.453125 289.96875 248.800781 C 290.625 248.148438 291.207031 247.4375 291.71875 246.671875 C 292.230469 245.902344 292.664062 245.09375 293.019531 244.242188 C 293.371094 243.386719 293.636719 242.507812 293.820312 241.601562 C 294 240.699219 294.089844 239.785156 294.089844 238.859375 C 294.085938 237.9375 293.996094 237.023438 293.816406 236.117188 C 293.636719 235.214844 293.367188 234.335938 293.015625 233.484375 C 292.660156 232.628906 292.226562 231.820312 291.714844 231.054688 C 291.203125 230.285156 290.617188 229.578125 289.964844 228.921875 C 289.3125 228.269531 288.605469 227.6875 287.835938 227.175781 C 287.070312 226.664062 286.257812 226.230469 285.40625 225.875 C 284.554688 225.523438 283.675781 225.253906 282.769531 225.074219 C 281.867188 224.894531 280.953125 224.800781 280.03125 224.800781 Z M 280.03125 224.800781 "/><path style=" stroke:none;fill-rule:nonzero;fill:#ffffff;fill-opacity:1;" d="M 259.734375 306.898438 C 259.328125 306.898438 258.9375 306.820312 258.558594 306.664062 C 258.183594 306.507812 257.851562 306.289062 257.5625 306 C 257.277344 305.710938 257.054688 305.378906 256.898438 305.003906 C 256.742188 304.625 256.664062 304.234375 256.664062 303.828125 L 256.664062 287.789062 C 256.664062 287.378906 256.742188 286.988281 256.898438 286.613281 C 257.054688 286.234375 257.277344 285.902344 257.5625 285.617188 C 257.851562 285.328125 258.183594 285.105469 258.558594 284.949219 C 258.9375 284.792969 259.328125 284.714844 259.734375 284.714844 C 260.140625 284.714844 260.535156 284.792969 260.910156 284.949219 C 261.285156 285.105469 261.617188 285.328125 261.90625 285.617188 C 262.195312 285.902344 262.417969 286.234375 262.574219 286.613281 C 262.730469 286.988281 262.804688 287.378906 262.808594 287.789062 L 262.808594 303.828125 C 262.804688 304.234375 262.730469 304.625 262.574219 305.003906 C 262.417969 305.378906 262.195312 305.710938 261.90625 306 C 261.617188 306.289062 261.285156 306.507812 260.910156 306.664062 C 260.535156 306.820312 260.140625 306.898438 259.734375 306.898438 Z M 259.734375 306.898438 "/><path style=" stroke:none;fill-rule:nonzero;fill:#ffffff;fill-opacity:1;" d="M 300.324219 306.898438 C 299.917969 306.898438 299.523438 306.820312 299.148438 306.664062 C 298.773438 306.507812 298.441406 306.289062 298.152344 306 C 297.863281 305.710938 297.640625 305.378906 297.484375 305.003906 C 297.328125 304.625 297.253906 304.234375 297.253906 303.828125 L 297.253906 287.789062 C 297.253906 287.378906 297.328125 286.988281 297.484375 286.613281 C 297.640625 286.234375 297.863281 285.902344 298.152344 285.617188 C 298.441406 285.328125 298.773438 285.105469 299.148438 284.949219 C 299.523438 284.792969 299.917969 284.714844 300.324219 284.714844 C 300.730469 284.714844 301.121094 284.792969 301.5 284.949219 C 301.875 285.105469 302.207031 285.328125 302.496094 285.617188 C 302.785156 285.902344 303.003906 286.234375 303.160156 286.613281 C 303.316406 286.988281 303.394531 287.378906 303.394531 287.789062 L 303.394531 303.828125 C 303.394531 304.234375 303.316406 304.625 303.160156 305.003906 C 303.003906 305.378906 302.785156 305.710938 302.496094 306 C 302.207031 306.289062 301.875 306.507812 301.5 306.664062 C 301.121094 306.820312 300.730469 306.898438 300.324219 306.898438 Z M 300.324219 306.898438 "/><path style=" stroke:none;fill-rule:nonzero;fill:#ffffff;fill-opacity:1;" d="M 190.417969 111.796875 C 189.789062 111.796875 189.167969 111.738281 188.550781 111.613281 C 187.933594 111.492188 187.335938 111.308594 186.753906 111.070312 C 186.171875 110.828125 185.621094 110.535156 185.097656 110.183594 C 184.574219 109.835938 184.09375 109.4375 183.648438 108.992188 C 183.203125 108.550781 182.804688 108.066406 182.457031 107.542969 C 182.109375 107.019531 181.8125 106.46875 181.570312 105.886719 C 181.332031 105.304688 181.148438 104.707031 181.027344 104.089844 C 180.90625 103.472656 180.84375 102.851562 180.84375 102.222656 C 180.84375 101.59375 180.90625 100.972656 181.027344 100.355469 C 181.148438 99.738281 181.332031 99.140625 181.570312 98.558594 C 181.8125 97.976562 182.109375 97.425781 182.457031 96.902344 C 182.804688 96.378906 183.203125 95.898438 183.648438 95.453125 C 184.09375 95.007812 184.574219 94.609375 185.097656 94.261719 C 185.621094 93.914062 186.171875 93.617188 186.753906 93.375 C 187.335938 93.136719 187.933594 92.953125 188.550781 92.832031 C 189.167969 92.710938 189.789062 92.648438 190.417969 92.648438 C 191.046875 92.648438 191.667969 92.710938 192.285156 92.832031 C 192.902344 92.953125 193.5 93.136719 194.082031 93.375 C 194.664062 93.617188 195.214844 93.914062 195.738281 94.261719 C 196.261719 94.609375 196.746094 95.007812 197.1875 95.453125 C 197.632812 95.898438 198.03125 96.378906 198.378906 96.902344 C 198.730469 97.425781 199.023438 97.976562 199.265625 98.558594 C 199.503906 99.140625 199.6875 99.738281 199.808594 100.355469 C 199.933594 100.972656 199.992188 101.59375 199.992188 102.222656 C 199.992188 102.851562 199.929688 103.472656 199.804688 104.089844 C 199.683594 104.707031 199.5 105.304688 199.257812 105.882812 C 199.015625 106.464844 198.722656 107.015625 198.371094 107.539062 C 198.023438 108.058594 197.625 108.542969 197.183594 108.988281 C 196.738281 109.429688 196.253906 109.828125 195.730469 110.175781 C 195.210938 110.527344 194.660156 110.820312 194.078125 111.0625 C 193.5 111.304688 192.902344 111.488281 192.285156 111.609375 C 191.667969 111.734375 191.046875 111.796875 190.417969 111.796875 Z M 190.417969 98.789062 C 189.964844 98.789062 189.523438 98.878906 189.105469 99.050781 C 188.683594 99.226562 188.3125 99.472656 187.992188 99.796875 C 187.667969 100.117188 187.421875 100.488281 187.246094 100.910156 C 187.074219 101.328125 186.984375 101.769531 186.984375 102.222656 C 186.984375 102.679688 187.074219 103.117188 187.246094 103.535156 C 187.421875 103.957031 187.667969 104.328125 187.992188 104.648438 C 188.3125 104.972656 188.683594 105.21875 189.105469 105.394531 C 189.523438 105.566406 189.964844 105.65625 190.417969 105.65625 C 190.875 105.65625 191.3125 105.566406 191.730469 105.394531 C 192.152344 105.21875 192.523438 104.972656 192.84375 104.648438 C 193.167969 104.328125 193.414062 103.957031 193.589844 103.535156 C 193.761719 103.117188 193.851562 102.679688 193.851562 102.222656 C 193.847656 101.769531 193.757812 101.332031 193.582031 100.914062 C 193.40625 100.492188 193.160156 100.125 192.839844 99.800781 C 192.515625 99.480469 192.148438 99.234375 191.726562 99.058594 C 191.308594 98.882812 190.871094 98.792969 190.417969 98.789062 Z M 190.417969 98.789062 "/><path style=" stroke:none;fill-rule:nonzero;fill:#ffffff;fill-opacity:1;" d="M 216.867188 110.667969 C 216.3125 110.667969 215.761719 110.613281 215.21875 110.507812 C 214.675781 110.398438 214.148438 110.238281 213.632812 110.027344 C 213.121094 109.8125 212.636719 109.554688 212.175781 109.246094 C 211.714844 108.9375 211.285156 108.585938 210.894531 108.195312 C 210.503906 107.804688 210.152344 107.375 209.84375 106.914062 C 209.535156 106.453125 209.277344 105.96875 209.0625 105.457031 C 208.851562 104.941406 208.691406 104.414062 208.582031 103.871094 C 208.472656 103.328125 208.421875 102.777344 208.421875 102.222656 C 208.421875 101.667969 208.472656 101.117188 208.582031 100.574219 C 208.691406 100.03125 208.851562 99.503906 209.0625 98.992188 C 209.277344 98.476562 209.535156 97.992188 209.84375 97.53125 C 210.152344 97.070312 210.503906 96.644531 210.894531 96.25 C 211.285156 95.859375 211.714844 95.507812 212.175781 95.199219 C 212.636719 94.890625 213.121094 94.632812 213.632812 94.417969 C 214.148438 94.207031 214.675781 94.046875 215.21875 93.9375 C 215.761719 93.832031 216.3125 93.777344 216.867188 93.777344 C 217.421875 93.777344 217.96875 93.832031 218.515625 93.9375 C 219.058594 94.046875 219.585938 94.207031 220.097656 94.417969 C 220.609375 94.632812 221.097656 94.890625 221.558594 95.199219 C 222.019531 95.507812 222.445312 95.859375 222.839844 96.25 C 223.230469 96.644531 223.582031 97.070312 223.890625 97.53125 C 224.199219 97.992188 224.457031 98.476562 224.667969 98.992188 C 224.882812 99.503906 225.042969 100.03125 225.152344 100.574219 C 225.257812 101.117188 225.3125 101.667969 225.3125 102.222656 C 225.3125 102.777344 225.257812 103.328125 225.152344 103.871094 C 225.042969 104.414062 224.882812 104.941406 224.667969 105.457031 C 224.457031 105.96875 224.199219 106.453125 223.890625 106.914062 C 223.582031 107.375 223.230469 107.804688 222.839844 108.195312 C 222.445312 108.585938 222.019531 108.9375 221.558594 109.246094 C 221.097656 109.554688 220.609375 109.8125 220.097656 110.027344 C 219.585938 110.238281 219.058594 110.398438 218.515625 110.507812 C 217.96875 110.613281 217.421875 110.667969 216.867188 110.667969 Z M 216.867188 99.917969 C 216.5625 99.917969 216.265625 99.976562 215.984375 100.09375 C 215.703125 100.210938 215.453125 100.378906 215.238281 100.59375 C 215.023438 100.808594 214.855469 101.058594 214.738281 101.339844 C 214.621094 101.625 214.5625 101.917969 214.5625 102.222656 C 214.5625 102.527344 214.621094 102.820312 214.738281 103.105469 C 214.855469 103.386719 215.023438 103.636719 215.238281 103.851562 C 215.453125 104.066406 215.703125 104.234375 215.984375 104.351562 C 216.265625 104.46875 216.5625 104.527344 216.867188 104.527344 C 217.171875 104.527344 217.464844 104.46875 217.75 104.351562 C 218.03125 104.234375 218.28125 104.066406 218.496094 103.851562 C 218.710938 103.636719 218.878906 103.386719 218.996094 103.105469 C 219.113281 102.820312 219.171875 102.527344 219.171875 102.222656 C 219.171875 101.917969 219.113281 101.625 218.996094 101.339844 C 218.878906 101.058594 218.710938 100.808594 218.496094 100.59375 C 218.28125 100.378906 218.03125 100.210938 217.75 100.09375 C 217.464844 99.976562 217.171875 99.917969 216.867188 99.917969 Z M 216.867188 99.917969 "/></g></svg>