<svg xmlns="http://www.w3.org/2000/svg" xmlns:xlink="http://www.w3.org/1999/xlink" width="512" zoomAndPan="magnify" viewBox="0 0 384 391.91998" height="512" preserveAspectRatio="xMidYMid meet" version="1.2"><defs><clipPath id="7d49b9b21d"><path d="M 0.0390625 1.558594 L 383.210938 1.558594 L 383.210938 383.921875 L 0.0390625 383.921875 Z M 0.0390625 1.558594 "/></clipPath></defs><g id="cea5a97c00"><g clip-rule="nonzero" clip-path="url(#7d49b9b21d)"><path style=" stroke:none;fill-rule:evenodd;fill:#ed407a;fill-opacity:1;" d="M 191.632812 1.542969 C 297.445312 1.542969 383.226562 87.320312 383.226562 193.132812 C 383.226562 298.949219 297.445312 384.730469 191.632812 384.730469 C 85.820312 384.730469 0.0390625 298.949219 0.0390625 193.132812 C 0.0390625 87.320312 85.820312 1.542969 191.632812 1.542969 "/></g><path style=" stroke:none;fill-rule:evenodd;fill:#ffffff;fill-opacity:1;" d="M 246.519531 118.316406 L 246.519531 98.347656 C 246.519531 92.835938 242.027344 88.355469 236.527344 88.355469 C 231.03125 88.355469 226.539062 92.835938 226.539062 98.347656 L 226.539062 118.316406 C 226.539062 123.828125 231.03125 128.261719 236.527344 128.261719 C 242.027344 128.261719 246.519531 123.828125 246.519531 118.316406 Z M 149.21875 128.261719 C 153.359375 128.261719 156.730469 124.953125 156.730469 120.761719 L 156.730469 95.863281 C 156.730469 91.726562 153.359375 88.355469 149.21875 88.355469 L 144.253906 88.355469 C 140.113281 88.355469 136.746094 91.675781 136.746094 95.863281 L 136.746094 120.761719 C 136.746094 124.902344 140.113281 128.261719 144.253906 128.261719 Z M 93.140625 108.335938 C 89.6875 108.335938 86.855469 111.207031 86.855469 114.761719 L 86.855469 291.425781 C 86.855469 294.984375 89.6875 297.917969 93.140625 297.917969 L 290.121094 297.917969 C 293.578125 297.917969 296.410156 294.984375 296.410156 291.425781 L 296.410156 114.761719 C 296.410156 111.207031 293.578125 108.335938 290.121094 108.335938 L 256.511719 108.335938 L 256.511719 126.996094 C 256.511719 133.234375 249.773438 138.246094 241.492188 138.246094 L 231.5625 138.246094 C 223.234375 138.246094 216.546875 133.234375 216.546875 126.996094 L 216.546875 108.335938 L 166.65625 108.335938 L 166.65625 126.996094 C 166.65625 133.234375 159.980469 138.246094 151.703125 138.246094 L 141.757812 138.246094 C 133.429688 138.246094 126.753906 133.234375 126.753906 126.996094 L 126.753906 108.335938 Z M 256.511719 178.152344 L 286.417969 178.152344 L 286.417969 208.121094 L 256.511719 208.121094 Z M 256.511719 218.046875 L 286.417969 218.046875 L 286.417969 248.023438 L 256.511719 248.023438 Z M 256.511719 258.015625 L 286.417969 258.015625 L 286.417969 284.171875 C 286.417969 286.265625 284.523438 287.921875 282.128906 287.921875 L 256.511719 287.921875 Z M 216.546875 178.152344 L 246.519531 178.152344 L 246.519531 208.121094 L 216.546875 208.121094 Z M 216.546875 218.046875 L 246.519531 218.046875 L 246.519531 248.023438 L 216.546875 248.023438 Z M 216.546875 258.015625 L 246.519531 258.015625 L 246.519531 287.921875 L 216.546875 287.921875 Z M 176.644531 178.152344 L 206.621094 178.152344 L 206.621094 208.121094 L 176.644531 208.121094 Z M 176.644531 258.015625 L 206.621094 258.015625 L 206.621094 287.921875 L 176.644531 287.921875 Z M 136.746094 178.152344 L 166.65625 178.152344 L 166.65625 208.121094 L 136.746094 208.121094 Z M 136.746094 218.046875 L 166.65625 218.046875 L 166.65625 248.023438 L 136.746094 248.023438 Z M 136.746094 258.015625 L 166.65625 258.015625 L 166.65625 287.921875 L 136.746094 287.921875 Z M 126.753906 287.921875 L 101.132812 287.921875 C 98.742188 287.921875 96.847656 286.265625 96.847656 284.171875 L 96.847656 258.015625 L 126.753906 258.015625 Z M 126.753906 248.023438 L 96.847656 248.023438 L 96.847656 218.046875 L 126.753906 218.046875 Z M 126.753906 208.121094 L 96.847656 208.121094 L 96.847656 178.152344 L 126.753906 178.152344 Z M 207.871094 216.808594 C 209.410156 216.382812 211.148438 216.757812 212.363281 217.972656 C 214.15625 219.753906 214.15625 222.667969 212.363281 224.46875 L 193.203125 243.632812 C 192.304688 244.53125 191.128906 244.984375 189.9375 244.984375 C 188.761719 244.984375 187.597656 244.53125 186.6875 243.632812 L 174.882812 231.828125 C 170.609375 227.546875 177.109375 221.039062 181.378906 225.3125 L 189.9375 233.875 L 207.871094 216.808594 "/></g></svg>