<svg xmlns="http://www.w3.org/2000/svg" xmlns:xlink="http://www.w3.org/1999/xlink" width="512" zoomAndPan="magnify" viewBox="0 0 384 391.91998" height="512" preserveAspectRatio="xMidYMid meet" version="1.2"><defs><clipPath id="78d60a319a"><path d="M 0.0390625 0.53125 L 383.210938 0.53125 L 383.210938 383.703125 L 0.0390625 383.703125 Z M 0.0390625 0.53125 "/></clipPath></defs><g id="44a408a6f3"><g clip-rule="nonzero" clip-path="url(#78d60a319a)"><path style=" stroke:none;fill-rule:nonzero;fill:#ce394f;fill-opacity:1;" d="M 383.210938 192.117188 C 383.210938 195.253906 383.132812 198.386719 382.980469 201.519531 C 382.828125 204.648438 382.597656 207.773438 382.289062 210.894531 C 381.980469 214.015625 381.597656 217.125 381.136719 220.226562 C 380.675781 223.328125 380.140625 226.417969 379.53125 229.492188 C 378.917969 232.570312 378.230469 235.628906 377.46875 238.667969 C 376.707031 241.710938 375.871094 244.730469 374.960938 247.730469 C 374.050781 250.730469 373.066406 253.707031 372.011719 256.660156 C 370.957031 259.613281 369.828125 262.535156 368.628906 265.433594 C 367.425781 268.332031 366.15625 271.195312 364.816406 274.03125 C 363.476562 276.863281 362.066406 279.664062 360.589844 282.429688 C 359.109375 285.195312 357.566406 287.921875 355.953125 290.613281 C 354.339844 293.300781 352.664062 295.949219 350.921875 298.554688 C 349.179688 301.164062 347.375 303.726562 345.507812 306.246094 C 343.640625 308.761719 341.710938 311.234375 339.722656 313.65625 C 337.734375 316.082031 335.6875 318.453125 333.582031 320.777344 C 331.476562 323.101562 329.3125 325.371094 327.097656 327.589844 C 324.878906 329.804688 322.609375 331.96875 320.285156 334.074219 C 317.964844 336.179688 315.589844 338.226562 313.164062 340.214844 C 310.742188 342.203125 308.269531 344.132812 305.753906 346 C 303.234375 347.867188 300.671875 349.671875 298.066406 351.414062 C 295.457031 353.15625 292.808594 354.832031 290.121094 356.445312 C 287.429688 358.058594 284.703125 359.601562 281.9375 361.082031 C 279.171875 362.558594 276.371094 363.96875 273.539062 365.308594 C 270.703125 366.648438 267.839844 367.917969 264.941406 369.121094 C 262.046875 370.320312 259.121094 371.445312 256.167969 372.503906 C 253.214844 373.558594 250.238281 374.542969 247.238281 375.453125 C 244.238281 376.363281 241.21875 377.199219 238.175781 377.960938 C 235.136719 378.722656 232.078125 379.410156 229 380.023438 C 225.925781 380.632812 222.839844 381.167969 219.738281 381.628906 C 216.636719 382.089844 213.523438 382.472656 210.402344 382.78125 C 207.285156 383.085938 204.15625 383.316406 201.027344 383.472656 C 197.894531 383.625 194.761719 383.703125 191.625 383.703125 C 188.488281 383.703125 185.355469 383.625 182.222656 383.472656 C 179.09375 383.316406 175.964844 383.085938 172.847656 382.78125 C 169.726562 382.472656 166.613281 382.089844 163.511719 381.628906 C 160.410156 381.167969 157.324219 380.632812 154.25 380.023438 C 151.171875 379.410156 148.113281 378.722656 145.074219 377.960938 C 142.03125 377.199219 139.011719 376.363281 136.011719 375.453125 C 133.011719 374.542969 130.035156 373.558594 127.082031 372.503906 C 124.128906 371.445312 121.207031 370.320312 118.308594 369.121094 C 115.410156 367.917969 112.546875 366.648438 109.710938 365.308594 C 106.878906 363.96875 104.078125 362.558594 101.3125 361.082031 C 98.546875 359.601562 95.820312 358.058594 93.128906 356.445312 C 90.441406 354.832031 87.792969 353.15625 85.1875 351.414062 C 82.578125 349.671875 80.015625 347.867188 77.496094 346 C 74.980469 344.132812 72.507812 342.203125 70.085938 340.214844 C 67.660156 338.226562 65.285156 336.179688 62.964844 334.074219 C 60.640625 331.96875 58.371094 329.804688 56.152344 327.589844 C 53.9375 325.371094 51.773438 323.101562 49.667969 320.777344 C 47.5625 318.453125 45.515625 316.082031 43.527344 313.65625 C 41.539062 311.234375 39.609375 308.761719 37.742188 306.246094 C 35.875 303.726562 34.070312 301.164062 32.328125 298.554688 C 30.585938 295.949219 28.910156 293.300781 27.296875 290.613281 C 25.683594 287.921875 24.140625 285.195312 22.660156 282.429688 C 21.183594 279.664062 19.773438 276.863281 18.433594 274.03125 C 17.09375 271.195312 15.824219 268.332031 14.621094 265.433594 C 13.421875 262.535156 12.292969 259.613281 11.238281 256.660156 C 10.183594 253.707031 9.199219 250.730469 8.289062 247.730469 C 7.378906 244.730469 6.542969 241.710938 5.78125 238.667969 C 5.019531 235.628906 4.332031 232.570312 3.71875 229.492188 C 3.109375 226.417969 2.574219 223.328125 2.113281 220.226562 C 1.652344 217.125 1.269531 214.015625 0.960938 210.894531 C 0.65625 207.773438 0.421875 204.648438 0.269531 201.519531 C 0.117188 198.386719 0.0390625 195.253906 0.0390625 192.117188 C 0.0390625 188.980469 0.117188 185.847656 0.269531 182.714844 C 0.421875 179.585938 0.65625 176.457031 0.960938 173.339844 C 1.269531 170.21875 1.652344 167.105469 2.113281 164.003906 C 2.574219 160.902344 3.109375 157.816406 3.71875 154.742188 C 4.332031 151.664062 5.019531 148.605469 5.78125 145.566406 C 6.542969 142.523438 7.378906 139.503906 8.289062 136.503906 C 9.199219 133.503906 10.183594 130.527344 11.238281 127.574219 C 12.292969 124.621094 13.421875 121.695312 14.621094 118.800781 C 15.824219 115.902344 17.09375 113.039062 18.433594 110.203125 C 19.773438 107.367188 21.183594 104.570312 22.660156 101.804688 C 24.140625 99.039062 25.683594 96.3125 27.296875 93.621094 C 28.910156 90.933594 30.585938 88.285156 32.328125 85.675781 C 34.070312 83.070312 35.875 80.507812 37.742188 77.988281 C 39.609375 75.472656 41.539062 73 43.527344 70.578125 C 45.515625 68.152344 47.5625 65.777344 49.667969 63.457031 C 51.773438 61.132812 53.9375 58.863281 56.152344 56.644531 C 58.371094 54.429688 60.640625 52.265625 62.964844 50.160156 C 65.285156 48.054688 67.660156 46.007812 70.085938 44.019531 C 72.507812 42.03125 74.980469 40.101562 77.496094 38.234375 C 80.015625 36.367188 82.578125 34.5625 85.1875 32.820312 C 87.792969 31.078125 90.441406 29.398438 93.128906 27.789062 C 95.820312 26.175781 98.546875 24.632812 101.3125 23.152344 C 104.078125 21.675781 106.878906 20.265625 109.710938 18.925781 C 112.546875 17.585938 115.410156 16.316406 118.308594 15.113281 C 121.207031 13.914062 124.128906 12.785156 127.082031 11.730469 C 130.035156 10.675781 133.011719 9.691406 136.011719 8.78125 C 139.011719 7.871094 142.03125 7.035156 145.074219 6.273438 C 148.113281 5.511719 151.171875 4.824219 154.25 4.210938 C 157.324219 3.601562 160.410156 3.066406 163.511719 2.605469 C 166.613281 2.144531 169.726562 1.761719 172.847656 1.453125 C 175.964844 1.144531 179.09375 0.914062 182.222656 0.761719 C 185.355469 0.609375 188.488281 0.53125 191.625 0.53125 C 194.761719 0.53125 197.894531 0.609375 201.027344 0.761719 C 204.15625 0.914062 207.285156 1.144531 210.402344 1.453125 C 213.523438 1.761719 216.636719 2.144531 219.738281 2.605469 C 222.839844 3.066406 225.925781 3.601562 229 4.210938 C 232.078125 4.824219 235.136719 5.511719 238.175781 6.273438 C 241.21875 7.035156 244.238281 7.871094 247.238281 8.78125 C 250.238281 9.691406 253.214844 10.675781 256.167969 11.730469 C 259.121094 12.785156 262.046875 13.914062 264.941406 15.113281 C 267.839844 16.316406 270.703125 17.585938 273.539062 18.925781 C 276.371094 20.265625 279.171875 21.675781 281.9375 23.152344 C 284.703125 24.632812 287.429688 26.175781 290.121094 27.789062 C 292.808594 29.398438 295.457031 31.078125 298.0625 32.820312 C 300.671875 34.5625 303.234375 36.367188 305.753906 38.234375 C 308.269531 40.101562 310.742188 42.03125 313.164062 44.019531 C 315.589844 46.007812 317.964844 48.054688 320.285156 50.160156 C 322.609375 52.265625 324.878906 54.429688 327.097656 56.644531 C 329.3125 58.863281 331.476562 61.132812 333.582031 63.457031 C 335.6875 65.777344 337.734375 68.152344 339.722656 70.578125 C 341.710938 73 343.640625 75.472656 345.507812 77.988281 C 347.375 80.507812 349.179688 83.070312 350.921875 85.675781 C 352.664062 88.285156 354.339844 90.933594 355.953125 93.621094 C 357.566406 96.3125 359.109375 99.039062 360.589844 101.804688 C 362.066406 104.570312 363.476562 107.367188 364.816406 110.203125 C 366.15625 113.039062 367.425781 115.902344 368.628906 118.800781 C 369.828125 121.695312 370.957031 124.621094 372.011719 127.574219 C 373.066406 130.527344 374.050781 133.503906 374.960938 136.503906 C 375.871094 139.503906 376.707031 142.523438 377.46875 145.566406 C 378.230469 148.605469 378.917969 151.664062 379.53125 154.742188 C 380.140625 157.816406 380.675781 160.902344 381.136719 164.003906 C 381.597656 167.105469 381.980469 170.21875 382.289062 173.339844 C 382.597656 176.457031 382.828125 179.585938 382.980469 182.714844 C 383.132812 185.847656 383.210938 188.980469 383.210938 192.117188 Z M 383.210938 192.117188 "/></g><path style=" stroke:none;fill-rule:evenodd;fill:#ffffff;fill-opacity:1;" d="M 179.863281 158.046875 C 191.085938 158.046875 200.277344 148.851562 200.277344 137.628906 C 187.433594 136.140625 177.429688 125.324219 177.15625 112.210938 L 177.15625 102.609375 L 165.394531 102.609375 C 154.039062 102.609375 144.84375 111.804688 144.84375 123.164062 L 144.84375 137.492188 C 144.84375 140.605469 145.519531 143.714844 147.007812 146.554688 C 147.277344 147.09375 147.277344 147.90625 147.140625 148.582031 L 143.898438 160.074219 L 156.203125 156.558594 C 156.878906 156.421875 157.417969 156.421875 158.09375 156.691406 C 160.394531 157.640625 162.828125 158.046875 165.394531 158.046875 Z M 168.640625 113.699219 C 170.128906 113.699219 171.480469 114.914062 171.480469 116.539062 C 171.480469 118.023438 170.128906 119.375 168.640625 119.375 L 158.09375 119.375 C 156.472656 119.375 155.253906 118.023438 155.253906 116.539062 C 155.253906 114.914062 156.472656 113.699219 158.09375 113.699219 Z M 172.425781 133.167969 L 154.308594 133.167969 C 152.6875 133.167969 151.46875 131.949219 151.46875 130.328125 C 151.46875 128.839844 152.6875 127.488281 154.308594 127.488281 L 172.425781 127.488281 C 174.046875 127.488281 175.265625 128.839844 175.265625 130.328125 C 175.265625 131.949219 174.046875 133.167969 172.425781 133.167969 Z M 186.082031 144.253906 C 186.082031 145.742188 184.863281 147.09375 183.242188 147.09375 L 162.015625 147.09375 C 160.394531 147.09375 159.175781 145.742188 159.175781 144.253906 C 159.175781 142.632812 160.394531 141.414062 162.015625 141.414062 L 183.242188 141.414062 C 184.863281 141.414062 186.082031 142.632812 186.082031 144.253906 Z M 186.082031 144.253906 "/><path style=" stroke:none;fill-rule:evenodd;fill:#ffffff;fill-opacity:1;" d="M 182.972656 111.535156 C 182.972656 122.890625 192.164062 132.085938 203.523438 132.085938 L 217.855469 132.085938 C 220.421875 132.085938 222.859375 131.679688 225.292969 130.734375 C 225.5625 130.597656 225.832031 130.597656 226.238281 130.597656 C 226.507812 130.597656 226.777344 130.597656 227.050781 130.597656 L 239.351562 134.113281 L 236.109375 122.621094 C 235.835938 121.945312 235.972656 121.269531 236.242188 120.59375 C 237.59375 117.753906 238.40625 114.78125 238.40625 111.535156 L 238.40625 97.203125 C 238.40625 85.980469 229.078125 76.652344 217.855469 76.652344 L 203.523438 76.652344 C 192.164062 76.652344 182.972656 85.980469 182.972656 97.203125 Z M 221.234375 121.132812 L 200.007812 121.132812 C 198.386719 121.132812 197.035156 119.78125 197.035156 118.292969 C 197.035156 116.671875 198.386719 115.457031 200.007812 115.457031 L 221.234375 115.457031 C 222.859375 115.457031 224.074219 116.671875 224.074219 118.292969 C 224.074219 119.78125 222.859375 121.132812 221.234375 121.132812 Z M 228.941406 107.207031 L 192.300781 107.207031 C 190.679688 107.207031 189.460938 105.992188 189.460938 104.367188 C 189.460938 102.882812 190.679688 101.53125 192.300781 101.53125 L 228.941406 101.53125 C 230.429688 101.53125 231.78125 102.882812 231.78125 104.367188 C 231.78125 105.992188 230.429688 107.207031 228.941406 107.207031 Z M 221.234375 93.417969 L 200.007812 93.417969 C 198.386719 93.417969 197.035156 92.199219 197.035156 90.578125 C 197.035156 88.957031 198.386719 87.738281 200.007812 87.738281 L 221.234375 87.738281 C 222.859375 87.738281 224.074219 88.957031 224.074219 90.578125 C 224.074219 92.199219 222.859375 93.417969 221.234375 93.417969 Z M 221.234375 93.417969 "/><path style=" stroke:none;fill-rule:evenodd;fill:#ffffff;fill-opacity:1;" d="M 275.992188 114.375 C 267.746094 114.375 261.121094 121 261.121094 129.246094 C 261.121094 137.628906 267.746094 144.253906 275.992188 144.253906 C 284.242188 144.253906 291 137.628906 291 129.246094 C 291 121 284.242188 114.375 275.992188 114.375 Z M 275.992188 114.375 "/><path style=" stroke:none;fill-rule:evenodd;fill:#ffffff;fill-opacity:1;" d="M 292.082031 175.082031 C 292.082031 166.5625 285.59375 162.238281 279.507812 161.964844 C 273.964844 161.5625 266.933594 164.535156 265.851562 174.132812 C 264.09375 187.519531 248.953125 187.65625 238.8125 187.789062 C 236.511719 187.789062 234.351562 187.789062 232.726562 188.0625 C 227.453125 188.464844 225.15625 191.441406 224.886719 193.738281 C 224.613281 195.632812 225.425781 197.929688 228.402344 199.011719 C 236.242188 201.851562 254.496094 201.582031 261.253906 197.660156 C 261.390625 197.660156 261.390625 197.660156 261.390625 197.660156 C 262.878906 196.847656 264.230469 196.308594 265.582031 195.902344 C 265.988281 195.765625 266.527344 195.632812 266.933594 195.496094 C 268.421875 194.820312 270.042969 195.632812 270.585938 197.121094 C 271.125 198.605469 270.449219 200.230469 268.960938 200.769531 C 268.421875 200.90625 267.746094 201.175781 267.339844 201.3125 C 266.664062 201.582031 266.125 201.714844 265.582031 201.988281 L 265.582031 223.214844 C 265.582031 224.835938 264.367188 226.054688 262.742188 226.054688 L 229.484375 226.1875 C 223.261719 227 218.667969 231.597656 217.855469 237.816406 L 217.71875 292.4375 C 217.71875 301.363281 224.480469 305.417969 230.96875 305.417969 C 237.59375 305.417969 244.21875 301.363281 244.21875 292.4375 L 244.21875 255.394531 C 244.21875 253.769531 245.4375 252.417969 247.058594 252.417969 C 248.953125 252.417969 251.25 252.554688 254.226562 252.554688 C 263.285156 252.6875 280.453125 253.09375 284.242188 251.335938 C 288.972656 249.171875 292.082031 244.304688 292.082031 239.304688 Z M 292.082031 175.082031 "/><path style=" stroke:none;fill-rule:evenodd;fill:#ffffff;fill-opacity:1;" d="M 165.261719 237.816406 C 164.585938 231.597656 159.851562 227 153.632812 226.1875 L 120.371094 226.054688 C 118.882812 226.054688 117.53125 224.835938 117.53125 223.214844 L 117.53125 201.988281 C 116.992188 201.714844 116.449219 201.582031 115.910156 201.445312 C 115.371094 201.175781 114.828125 201.039062 114.152344 200.769531 C 112.800781 200.230469 111.988281 198.605469 112.53125 197.121094 C 113.070312 195.632812 114.691406 194.957031 116.179688 195.496094 C 116.722656 195.632812 117.128906 195.902344 117.667969 196.039062 C 118.882812 196.445312 120.371094 196.847656 121.722656 197.660156 C 121.859375 197.660156 121.859375 197.796875 121.859375 197.796875 C 128.621094 201.582031 147.007812 201.851562 154.847656 199.011719 C 157.6875 198.066406 158.5 195.632812 158.363281 193.875 C 158.09375 191.441406 155.796875 188.464844 150.523438 188.0625 C 148.765625 187.925781 146.601562 187.789062 144.4375 187.789062 C 134.296875 187.789062 119.019531 187.65625 117.398438 174.132812 C 116.179688 164.671875 109.285156 161.5625 103.605469 161.964844 C 97.65625 162.371094 91.167969 166.5625 91.167969 175.082031 L 91.167969 239.304688 C 91.167969 244.441406 94.277344 249.308594 98.875 251.335938 C 102.660156 253.09375 119.832031 252.824219 129.023438 252.6875 C 131.730469 252.554688 134.027344 252.417969 135.785156 252.417969 L 136.054688 252.417969 C 137.679688 252.417969 139.03125 253.769531 139.03125 255.394531 L 139.03125 292.4375 C 139.03125 301.363281 145.519531 305.417969 152.144531 305.417969 C 158.769531 305.417969 165.394531 301.363281 165.394531 292.4375 Z M 165.261719 237.816406 "/><path style=" stroke:none;fill-rule:evenodd;fill:#ffffff;fill-opacity:1;" d="M 107.121094 144.253906 C 115.371094 144.253906 122.128906 137.628906 122.128906 129.246094 C 122.128906 121 115.371094 114.375 107.121094 114.375 C 98.875 114.375 92.113281 121 92.113281 129.246094 C 92.113281 137.628906 98.875 144.253906 107.121094 144.253906 Z M 107.121094 144.253906 "/><path style=" stroke:none;fill-rule:evenodd;fill:#ffffff;fill-opacity:1;" d="M 225.5625 214.019531 L 157.6875 214.019531 C 156.203125 214.019531 154.984375 212.804688 154.984375 211.316406 C 154.984375 209.828125 156.203125 208.613281 157.6875 208.613281 L 225.5625 208.613281 C 227.050781 208.613281 228.265625 209.828125 228.265625 211.316406 C 228.265625 212.804688 227.050781 214.019531 225.5625 214.019531 Z M 225.5625 214.019531 "/><path style=" stroke:none;fill-rule:evenodd;fill:#ffffff;fill-opacity:1;" d="M 126.726562 266.75 L 97.523438 266.75 C 87.652344 266.75 79.675781 257.015625 79.675781 245.117188 L 79.675781 205.90625 C 79.675781 204.421875 80.890625 203.203125 82.378906 203.203125 C 83.867188 203.203125 85.082031 204.421875 85.082031 205.90625 L 85.082031 245.117188 C 85.082031 254.039062 90.625 261.34375 97.523438 261.34375 L 126.726562 261.34375 C 128.214844 261.34375 129.429688 262.558594 129.429688 264.046875 C 129.429688 265.535156 128.214844 266.75 126.726562 266.75 Z M 126.726562 266.75 "/><path style=" stroke:none;fill-rule:evenodd;fill:#ffffff;fill-opacity:1;" d="M 126.726562 307.445312 C 125.238281 307.445312 124.023438 306.230469 124.023438 304.742188 L 124.023438 264.046875 C 124.023438 262.558594 125.238281 261.34375 126.726562 261.34375 C 128.214844 261.34375 129.429688 262.558594 129.429688 264.046875 L 129.429688 304.742188 C 129.429688 306.230469 128.214844 307.445312 126.726562 307.445312 Z M 126.726562 307.445312 "/><path style=" stroke:none;fill-rule:evenodd;fill:#ffffff;fill-opacity:1;" d="M 90.492188 307.445312 C 89.003906 307.445312 87.789062 306.230469 87.789062 304.742188 L 87.789062 261.882812 C 87.789062 260.394531 89.003906 259.179688 90.492188 259.179688 C 91.980469 259.179688 93.195312 260.394531 93.195312 261.882812 L 93.195312 304.742188 C 93.195312 306.230469 91.980469 307.445312 90.492188 307.445312 Z M 90.492188 307.445312 "/><path style=" stroke:none;fill-rule:evenodd;fill:#ffffff;fill-opacity:1;" d="M 126.726562 287.570312 L 90.492188 287.570312 C 89.003906 287.570312 87.789062 286.355469 87.789062 284.867188 C 87.789062 283.378906 89.003906 282.164062 90.492188 282.164062 L 126.726562 282.164062 C 128.214844 282.164062 129.429688 283.378906 129.429688 284.867188 C 129.429688 286.355469 128.214844 287.570312 126.726562 287.570312 Z M 126.726562 287.570312 "/><path style=" stroke:none;fill-rule:evenodd;fill:#ffffff;fill-opacity:1;" d="M 285.59375 266.75 L 256.386719 266.75 C 254.902344 266.75 253.683594 265.535156 253.683594 264.046875 C 253.683594 262.558594 254.902344 261.34375 256.386719 261.34375 L 285.59375 261.34375 C 292.488281 261.34375 298.03125 254.039062 298.03125 245.117188 L 298.03125 205.90625 C 298.03125 204.421875 299.25 203.203125 300.734375 203.203125 C 302.222656 203.203125 303.441406 204.421875 303.441406 205.90625 L 303.441406 245.117188 C 303.441406 257.015625 295.460938 266.75 285.59375 266.75 Z M 285.59375 266.75 "/><path style=" stroke:none;fill-rule:evenodd;fill:#ffffff;fill-opacity:1;" d="M 256.386719 307.445312 C 254.902344 307.445312 253.683594 306.230469 253.683594 304.742188 L 253.683594 264.046875 C 253.683594 262.558594 254.902344 261.34375 256.386719 261.34375 C 257.875 261.34375 259.09375 262.558594 259.09375 264.046875 L 259.09375 304.742188 C 259.09375 306.230469 257.875 307.445312 256.386719 307.445312 Z M 256.386719 307.445312 "/><path style=" stroke:none;fill-rule:evenodd;fill:#ffffff;fill-opacity:1;" d="M 292.625 307.445312 C 291.269531 307.445312 290.054688 306.230469 290.054688 304.742188 L 290.054688 261.882812 C 290.054688 260.394531 291.269531 259.179688 292.625 259.179688 C 294.109375 259.179688 295.328125 260.394531 295.328125 261.882812 L 295.328125 304.742188 C 295.328125 306.230469 294.109375 307.445312 292.625 307.445312 Z M 292.625 307.445312 "/><path style=" stroke:none;fill-rule:evenodd;fill:#ffffff;fill-opacity:1;" d="M 292.625 287.570312 L 256.386719 287.570312 C 254.902344 287.570312 253.683594 286.355469 253.683594 284.867188 C 253.683594 283.378906 254.902344 282.164062 256.386719 282.164062 L 292.625 282.164062 C 294.109375 282.164062 295.328125 283.378906 295.328125 284.867188 C 295.328125 286.355469 294.109375 287.570312 292.625 287.570312 Z M 292.625 287.570312 "/><path style=" stroke:none;fill-rule:evenodd;fill:#ffffff;fill-opacity:1;" d="M 191.625 306.5 C 190.136719 306.5 188.921875 305.285156 188.921875 303.796875 L 188.921875 211.316406 C 188.921875 209.828125 190.136719 208.613281 191.625 208.613281 C 193.113281 208.613281 194.328125 209.828125 194.328125 211.316406 L 194.328125 303.796875 C 194.328125 305.285156 193.113281 306.5 191.625 306.5 Z M 191.625 306.5 "/><path style=" stroke:none;fill-rule:evenodd;fill:#ffffff;fill-opacity:1;" d="M 200.546875 306.5 L 182.703125 306.5 C 181.214844 306.5 179.996094 305.285156 179.996094 303.796875 C 179.996094 302.308594 181.214844 301.09375 182.703125 301.09375 L 200.546875 301.09375 C 202.035156 301.09375 203.253906 302.308594 203.253906 303.796875 C 203.253906 305.285156 202.035156 306.5 200.546875 306.5 Z M 200.546875 306.5 "/></g></svg>